<?xml version="1.0" encoding="UTF-8" standalone="no"?><!DOCTYPE svg PUBLIC "-//W3C//DTD SVG 1.1//EN" "http://www.w3.org/Graphics/SVG/1.1/DTD/svg11.dtd"><svg width="100%" height="100%" viewBox="0 0 808 518" version="1.1" xmlns="http://www.w3.org/2000/svg" xmlns:xlink="http://www.w3.org/1999/xlink" xml:space="preserve" xmlns:serif="http://www.serif.com/" style="fill-rule:evenodd;clip-rule:evenodd;stroke-linecap:round;stroke-linejoin:round;stroke-miterlimit:1.5;"><g id="Layer3"></g><g id="Layer4"></g><g id="Layer6"></g><g id="Layer5"></g><g id="Sky"></g><g id="BackBuildings"></g><g id="FrontBuilding"></g><g id="BusStation"></g><g id="Bus"></g><rect id="Artboard1" x="0" y="0" width="807.598" height="518" style="fill:none;"/><g id="Bus1" serif:id="Bus"><path d="M275.926,411.678l-176.898,0l-10.34,20.725l187.238,1.299l0,-22.024Z" style="fill:#853100;"/><path d="M278.08,362.479c0,-2.25 -0.893,-4.408 -2.484,-5.998c-1.591,-1.591 -3.749,-2.485 -5.999,-2.485l-80.036,-0l0,13.325l88.519,0l0,-4.842Z" style="fill:#d14d00;stroke:#893f10;stroke-width:1.36px;"/><path d="M110.495,434.523c0,0 -47.029,-1.355 -64.427,-1.857c-3.548,-0.102 -6.371,-3.007 -6.371,-6.557c-0,-13.07 -0,-42.825 -0,-56.476c-0,-1.879 0.746,-3.681 2.075,-5.01c1.328,-1.329 3.13,-2.075 5.009,-2.075c39.444,-0 231.609,-0 271.052,-0c1.879,-0 3.681,0.746 5.01,2.075c1.328,1.329 2.075,3.131 2.075,5.01c-0,14.019 -0,45.119 -0,58.749c-0,1.75 -0.699,3.428 -1.942,4.66c-1.243,1.231 -2.927,1.916 -4.676,1.9c-14.671,-0.129 -48.636,-0.429 -48.636,-0.429c-0.239,-10.451 -8.136,-18.855 -17.829,-18.855c-9.595,0 -17.431,8.236 -17.819,18.54l-88.198,0.538c-0.237,-13.684 -8.424,-19.078 -17.776,-19.078c-9.253,0 -17.781,6.344 -17.547,18.865Z" style="fill:#fe9034;"/><clipPath id="_clip1"><path d="M110.495,434.523c0,0 -47.029,-1.355 -64.427,-1.857c-3.548,-0.102 -6.371,-3.007 -6.371,-6.557c-0,-13.07 -0,-42.825 -0,-56.476c-0,-1.879 0.746,-3.681 2.075,-5.01c1.328,-1.329 3.13,-2.075 5.009,-2.075c39.444,-0 231.609,-0 271.052,-0c1.879,-0 3.681,0.746 5.01,2.075c1.328,1.329 2.075,3.131 2.075,5.01c-0,14.019 -0,45.119 -0,58.749c-0,1.75 -0.699,3.428 -1.942,4.66c-1.243,1.231 -2.927,1.916 -4.676,1.9c-14.671,-0.129 -48.636,-0.429 -48.636,-0.429c-0.239,-10.451 -8.136,-18.855 -17.829,-18.855c-9.595,0 -17.431,8.236 -17.819,18.54l-88.198,0.538c-0.237,-13.684 -8.424,-19.078 -17.776,-19.078c-9.253,0 -17.781,6.344 -17.547,18.865Z"/></clipPath><g clip-path="url(#_clip1)"><rect x="38.622" y="362.548" width="286.295" height="9.547" style="fill:none;stroke:#000;stroke-width:1.58px;"/><rect x="318.138" y="418.62" width="10.889" height="5.545" style="fill:#ef7900;stroke:#893f10;stroke-width:1px;"/><rect x="300.513" y="372.095" width="27.318" height="43.013" style="fill:#ffc88e;"/><clipPath id="_clip2"><rect x="300.513" y="372.095" width="27.318" height="43.013"/></clipPath><g clip-path="url(#_clip2)"><path d="M312.907,365.541c0.55,1.65 26.814,26.813 26.814,26.813l-3.772,3.772l-30.045,-30.045c-0,-0 6.453,-2.19 7.003,-0.54Z" style="fill:#ffe1c2;"/><path d="M333.945,401.155l-5.156,5.156l-34.216,-34.216l5.619,-5.619l33.753,34.679Z" style="fill:#ffe1c2;"/></g><rect x="300.513" y="372.095" width="27.318" height="43.013" style="fill:none;stroke:#893f10;stroke-width:1.58px;"/><rect x="288.763" y="372.095" width="36.155" height="62.906" style="fill:none;stroke:#893f10;stroke-width:1.58px;"/><rect x="36.366" y="372.095" width="11.316" height="62.906" style="fill:#fe9034;stroke:#893f10;stroke-width:1.36px;"/><rect x="34.252" y="418.62" width="10.889" height="5.545" style="fill:#ef7900;stroke:#893f10;stroke-width:1px;"/><g><rect x="52.298" y="418.255" width="28.745" height="16.746" style="fill:none;stroke:#893f10;stroke-width:1px;"/><path d="M57.124,420.772l0,14.229" style="fill:none;stroke:#893f10;stroke-width:1px;"/><path d="M60.061,420.982l0,14.228" style="fill:none;stroke:#893f10;stroke-width:1px;"/><path d="M63.419,420.982l-0,14.228" style="fill:none;stroke:#893f10;stroke-width:1px;"/><path d="M66.776,420.772l-0,14.229" style="fill:none;stroke:#893f10;stroke-width:1px;"/><path d="M69.923,420.772l-0,14.229" style="fill:none;stroke:#893f10;stroke-width:1px;"/><path d="M73.49,420.982l-0,14.228" style="fill:none;stroke:#893f10;stroke-width:1px;"/><path d="M77.057,420.353l-0,14.228" style="fill:none;stroke:#893f10;stroke-width:1px;"/></g></g><path d="M110.495,434.523c0,0 -47.029,-1.355 -64.427,-1.857c-3.548,-0.102 -6.371,-3.007 -6.371,-6.557c-0,-13.07 -0,-42.825 -0,-56.476c-0,-1.879 0.746,-3.681 2.075,-5.01c1.328,-1.329 3.13,-2.075 5.009,-2.075c39.444,-0 231.609,-0 271.052,-0c1.879,-0 3.681,0.746 5.01,2.075c1.328,1.329 2.075,3.131 2.075,5.01c-0,14.019 -0,45.119 -0,58.749c-0,1.75 -0.699,3.428 -1.942,4.66c-1.243,1.231 -2.927,1.916 -4.676,1.9c-14.671,-0.129 -48.636,-0.429 -48.636,-0.429c-0.239,-10.451 -8.136,-18.855 -17.829,-18.855c-9.595,0 -17.431,8.236 -17.819,18.54l-88.198,0.538c-0.237,-13.684 -8.424,-19.078 -17.776,-19.078c-9.253,0 -17.781,6.344 -17.547,18.865Z" style="fill:none;stroke:#893f10;stroke-width:1.58px;"/><g><path d="M319.115,368.112c-0.54,0.002 -0.977,0.441 -0.977,0.981c-0,0.498 -0,1.104 -0,1.606c-0,0.264 0.106,0.517 0.295,0.701c0.189,0.185 0.444,0.285 0.708,0.279c2.877,-0.068 10.948,-0.258 10.948,-0.258c-0,0 4.47,-0.619 4.47,4.45l0,14.643l2.964,0l0,-16.333c0,-0 0.282,-6.083 -7.265,-6.083c-5.501,0 -9.421,0.009 -11.143,0.014Z" style="fill:#fe9034;stroke:#893f10;stroke-width:1.36px;"/><path d="M337.525,377.329l-2.888,-0c-1.31,-0 -2.373,1.062 -2.373,2.373c0,2.388 0,6.051 0,8.439c0,1.311 1.063,2.373 2.373,2.373c1.395,0 2.888,0 2.888,0l-0,-13.185Z" style="fill:#d14d00;stroke:#893f10;stroke-width:1.36px;"/></g><rect x="215.492" y="424.981" width="6.688" height="2.376" style="fill:#ffe8d0;stroke:#c28259;stroke-width:1px;"/><rect x="154.682" y="424.981" width="6.688" height="2.376" style="fill:#ffe8d0;stroke:#c28259;stroke-width:1px;"/><rect x="85.03" y="372.095" width="24.549" height="48.888" style="fill:none;stroke:#8d4211;stroke-width:1.58px;"/><rect x="88.689" y="375.255" width="17.57" height="34.364" style="fill:#ffc88e;"/><clipPath id="_clip3"><rect x="88.689" y="375.255" width="17.57" height="34.364"/></clipPath><g clip-path="url(#_clip3)"><path d="M98.009,372.095l14.052,14.052l-3.228,3.227l-17.015,-17.015l6.191,-0.264Z" style="fill:#ffe1c2;"/><path d="M88.689,372.095l21.22,21.219l-2.652,2.652l-20.456,-20.455l1.888,-3.416Z" style="fill:#ffe1c2;"/></g><rect x="88.689" y="375.255" width="17.57" height="34.364" style="fill:none;stroke:#8d4211;stroke-width:1.58px;"/><rect x="281" y="372.095" width="7.763" height="43.563" style="fill:none;stroke:#893f10;stroke-width:1.58px;"/><rect x="47.682" y="372.095" width="37.348" height="35.249" style="fill:none;stroke:#000;stroke-width:1.58px;"/><rect x="240.996" y="372.095" width="40.004" height="35.249" style="fill:#ffc88e;"/><clipPath id="_clip4"><rect x="240.996" y="372.095" width="40.004" height="35.249"/></clipPath><g clip-path="url(#_clip4)"><path d="M264.386,367.321l-31.293,31.294l3.177,13.147l38.395,-41.145l-10.279,-3.296Z" style="fill:#fff4e8;"/><path d="M256.785,369.791l-19.136,19.135l-1.152,-1.231l18.948,-18.948l1.34,1.044Z" style="fill:#fff4e8;"/><path d="M252.898,369.991c0,0 -16.319,16.32 -15.726,15.727c0.593,-0.594 -8.079,-8.079 -8.079,-8.079l14.022,-14.022l9.783,6.374Z" style="fill:#ffebd6;"/></g><rect x="240.996" y="372.095" width="40.004" height="35.249" style="fill:none;stroke:#dd6c1f;stroke-width:1.58px;"/><g id="Windows"><rect x="237.535" y="372.095" width="43.465" height="35.249" style="fill:#ffc88e;"/><clipPath id="_clip5"><rect x="237.535" y="372.095" width="43.465" height="35.249"/></clipPath><g clip-path="url(#_clip5)"><path d="M266.191,367.293l22.572,21.646l-5.177,4.937l-25.596,-24.547l8.201,-2.036Z" style="fill:#ffe1c2;"/><path d="M242.289,369.332l42.988,41.225l4.754,-6.375l-38.437,-36.861l-9.305,2.011Z" style="fill:#ffe1c2;"/></g><rect x="237.535" y="372.095" width="43.465" height="35.249" style="fill:none;stroke:#893f10;stroke-width:1.58px;"/><rect x="194.07" y="372.095" width="43.465" height="35.249" style="fill:#ffc88e;"/><clipPath id="_clip6"><rect x="194.07" y="372.095" width="43.465" height="35.249"/></clipPath><g clip-path="url(#_clip6)"><path d="M222.726,367.293l22.572,21.646l-5.176,4.937l-25.597,-24.547l8.201,-2.036Z" style="fill:#ffe1c2;"/><path d="M198.824,369.332l42.988,41.225l4.754,-6.375l-38.437,-36.861l-9.305,2.011Z" style="fill:#ffe1c2;"/></g><rect x="194.07" y="372.095" width="43.465" height="35.249" style="fill:none;stroke:#893f10;stroke-width:1.58px;"/><rect x="150.606" y="372.095" width="43.465" height="35.249" style="fill:#ffc88e;"/><clipPath id="_clip7"><rect x="150.606" y="372.095" width="43.465" height="35.249"/></clipPath><g clip-path="url(#_clip7)"><path d="M179.262,367.293l22.572,21.646l-5.177,4.937l-25.597,-24.547l8.202,-2.036Z" style="fill:#ffe1c2;"/><path d="M155.36,369.332l42.987,41.225l4.754,-6.375l-38.437,-36.861l-9.304,2.011Z" style="fill:#ffe1c2;"/></g><rect x="150.606" y="372.095" width="43.465" height="35.249" style="fill:none;stroke:#893f10;stroke-width:1.58px;"/><rect x="109.579" y="372.095" width="41.027" height="35.249" style="fill:#ffc88e;"/><clipPath id="_clip8"><rect x="109.579" y="372.095" width="41.027" height="35.249"/></clipPath><g clip-path="url(#_clip8)"><path d="M136.627,367.293l21.307,21.646l-4.887,4.937l-24.161,-24.547l7.741,-2.036Z" style="fill:#ffe1c2;"/><path d="M114.066,369.332l40.577,41.225l4.487,-6.375l-36.281,-36.861l-8.783,2.011Z" style="fill:#ffe1c2;"/></g><rect x="109.579" y="372.095" width="41.027" height="35.249" style="fill:none;stroke:#893f10;stroke-width:1.58px;"/><rect x="47.682" y="372.095" width="37.348" height="35.249" style="fill:#ffc88e;"/><clipPath id="_clip9"><rect x="47.682" y="372.095" width="37.348" height="35.249"/></clipPath><g clip-path="url(#_clip9)"><path d="M72.305,367.293l19.395,21.646l-4.448,4.937l-21.994,-24.547l7.047,-2.036Z" style="fill:#ffe1c2;"/><path d="M51.767,369.332l36.938,41.225l4.085,-6.375l-33.028,-36.861l-7.995,2.011Z" style="fill:#ffe1c2;"/></g><rect x="47.682" y="372.095" width="37.348" height="35.249" style="fill:none;stroke:#893f10;stroke-width:1.58px;"/></g><rect x="319.594" y="426.646" width="7.975" height="3.573" style="fill:#ffe8d0;stroke:#c28259;stroke-width:1px;"/><g id="Wheel"><circle cx="251.801" cy="432.069" r="13.563" style="fill:#d14d00;stroke:#763600;stroke-width:1.58px;"/><ellipse cx="251.801" cy="432.069" rx="6.769" ry="6.772" style="fill:#f7a97b;stroke:#763600;stroke-width:1px;"/><ellipse cx="251.801" cy="432.069" rx="1.62" ry="1.633" style="fill:#853100;"/><ellipse cx="251.801" cy="428.329" rx="0.599" ry="0.604" style="fill:#853100;"/><path d="M248.04,429.897c0.165,-0.286 0.534,-0.384 0.822,-0.217c0.289,0.167 0.389,0.535 0.224,0.821c-0.166,0.287 -0.534,0.384 -0.823,0.217c-0.289,-0.167 -0.389,-0.534 -0.223,-0.821Z" style="fill:#853100;"/><path d="M248.04,434.241c-0.166,-0.287 -0.066,-0.654 0.223,-0.821c0.289,-0.167 0.657,-0.07 0.823,0.217c0.165,0.286 0.065,0.654 -0.224,0.821c-0.288,0.167 -0.657,0.069 -0.822,-0.217Z" style="fill:#853100;"/><ellipse cx="251.801" cy="435.809" rx="0.599" ry="0.604" style="fill:#853100;"/><path d="M255.563,434.241c-0.165,0.286 -0.534,0.384 -0.822,0.217c-0.289,-0.167 -0.389,-0.535 -0.224,-0.821c0.166,-0.287 0.534,-0.384 0.823,-0.217c0.289,0.167 0.389,0.534 0.223,0.821Z" style="fill:#853100;"/><path d="M255.563,429.897c0.166,0.287 0.066,0.654 -0.223,0.821c-0.289,0.167 -0.657,0.07 -0.823,-0.217c-0.165,-0.286 -0.065,-0.654 0.224,-0.821c0.288,-0.167 0.657,-0.069 0.822,0.217Z" style="fill:#853100;"/></g><g id="Wheel1" serif:id="Wheel"><circle cx="127.925" cy="432.069" r="13.563" style="fill:#d14d00;stroke:#763600;stroke-width:1.58px;"/><ellipse cx="127.925" cy="432.069" rx="6.769" ry="6.772" style="fill:#f7a97b;stroke:#763600;stroke-width:1px;"/><ellipse cx="127.925" cy="432.069" rx="1.62" ry="1.633" style="fill:#853100;"/><ellipse cx="127.925" cy="428.329" rx="0.599" ry="0.604" style="fill:#853100;"/><path d="M124.163,429.897c0.166,-0.286 0.534,-0.384 0.823,-0.217c0.289,0.167 0.389,0.535 0.223,0.821c-0.165,0.287 -0.534,0.384 -0.822,0.217c-0.289,-0.167 -0.389,-0.534 -0.224,-0.821Z" style="fill:#853100;"/><path d="M124.163,434.241c-0.165,-0.287 -0.065,-0.654 0.224,-0.821c0.288,-0.167 0.657,-0.07 0.822,0.217c0.166,0.286 0.066,0.654 -0.223,0.821c-0.289,0.167 -0.657,0.069 -0.823,-0.217Z" style="fill:#853100;"/><ellipse cx="127.925" cy="435.809" rx="0.599" ry="0.604" style="fill:#853100;"/><path d="M131.687,434.241c-0.165,0.286 -0.534,0.384 -0.823,0.217c-0.288,-0.167 -0.389,-0.535 -0.223,-0.821c0.165,-0.287 0.534,-0.384 0.823,-0.217c0.288,0.167 0.388,0.534 0.223,0.821Z" style="fill:#853100;"/><path d="M131.687,429.897c0.165,0.287 0.065,0.654 -0.223,0.821c-0.289,0.167 -0.658,0.07 -0.823,-0.217c-0.166,-0.286 -0.065,-0.654 0.223,-0.821c0.289,-0.167 0.658,-0.069 0.823,0.217Z" style="fill:#853100;"/></g></g><g id="References"></g></svg>