<?xml version="1.0" encoding="UTF-8" standalone="no"?><!DOCTYPE svg PUBLIC "-//W3C//DTD SVG 1.1//EN" "http://www.w3.org/Graphics/SVG/1.1/DTD/svg11.dtd"><svg width="100%" height="100%" viewBox="0 0 808 518" version="1.1" xmlns="http://www.w3.org/2000/svg" xmlns:xlink="http://www.w3.org/1999/xlink" xml:space="preserve" xmlns:serif="http://www.serif.com/" style="fill-rule:evenodd;clip-rule:evenodd;stroke-linecap:round;stroke-linejoin:round;stroke-miterlimit:1.5;"><g id="Layer3"></g><g id="Layer4"></g><g id="Layer6"></g><g id="Layer5"></g><g id="Sky"></g><g id="BackBuildings"></g><g id="FrontBuilding"></g><g id="BusStation"></g><g id="Bus"></g><rect id="Artboard1" x="0" y="0" width="807.598" height="518" style="fill:none;"/><clipPath id="_clip1"><rect x="0" y="0" width="807.598" height="518"/></clipPath><g clip-path="url(#_clip1)"><g id="BusStation1" serif:id="BusStation"><rect x="-2.374" y="401.623" width="820.883" height="117.634" style="fill:#d2995f;"/><clipPath id="_clip2"><rect x="-2.374" y="401.623" width="820.883" height="117.634"/></clipPath><g clip-path="url(#_clip2)"><rect x="-2.374" y="401.623" width="820.883" height="31.698" style="fill:#b87a3c;stroke:#893f10;stroke-width:1.1px;"/></g><g><rect x="213.082" y="284.315" width="271.135" height="16.737" style="fill:#d14d00;"/><path d="M348.649,274.104l0,26.949" style="fill:none;stroke:#893f10;stroke-width:3.1px;"/><path d="M276.677,274.104l0,26.949" style="fill:none;stroke:#893f10;stroke-width:3.1px;"/><path d="M420.245,274.104l-0,26.949" style="fill:none;stroke:#893f10;stroke-width:3.1px;"/><path d="M225.659,284.315l-0,144.443" style="fill:none;stroke:#893f10;stroke-width:11.82px;"/><path d="M466.644,284.315l0,144.443" style="fill:none;stroke:#893f10;stroke-width:11.82px;"/><rect x="213.082" y="253.343" width="271.135" height="30.972" style="fill:#fe9034;"/><rect x="213.082" y="253.343" width="271.135" height="15.486" style="fill:#ffa050;"/><g><path d="M484.217,253.343l-0,47.71" style="fill:none;stroke:#893f10;stroke-width:4.26px;"/><path d="M213.082,253.343l-0,47.71" style="fill:none;stroke:#893f10;stroke-width:4.26px;"/><path d="M348.649,253.343l0,30.972" style="fill:none;stroke:#893f10;stroke-width:4.26px;"/><path d="M276.677,253.343l0,30.972" style="fill:none;stroke:#893f10;stroke-width:4.26px;"/><path d="M420.245,253.343l-0,30.972" style="fill:none;stroke:#893f10;stroke-width:4.26px;"/><path d="M207.991,284.315l281.317,0" style="fill:none;stroke:#893f10;stroke-width:4.26px;"/></g></g><g><path d="M420.245,363.034l-0,65.724" style="fill:none;stroke:#ffe7db;stroke-width:6.01px;"/><ellipse cx="419.974" cy="353.996" rx="14.352" ry="13.955" style="fill:#d14d00;"/><ellipse cx="419.974" cy="353.996" rx="12.184" ry="11.847" style="fill:#ffe7db;"/></g><path d="M21.227,433.321l0,23.774l317.994,-0l-0,-23.774" style="fill:none;stroke:#ffe7db;stroke-width:5.43px;"/><g><path d="M553.213,315.369l0,109.527" style="fill:none;stroke:#893f10;stroke-width:11.82px;"/><path d="M779.127,315.369l-0,109.527" style="fill:none;stroke:#893f10;stroke-width:11.82px;"/><rect x="517.846" y="309.79" width="324.027" height="11.158" style="fill:#ffa050;stroke:#893f10;stroke-width:3.1px;"/></g><g id="Layer2"><g id="fence"><path d="M356.758,387.356l247.617,0l0,48.921" style="fill:none;stroke:#ffe7db;stroke-width:5.43px;"/><path d="M356.758,387.356l0,48.921" style="fill:none;stroke:#ffe7db;stroke-width:5.43px;"/><path d="M356.758,404.579l247.617,0" style="fill:none;stroke:#ffe7db;stroke-width:3.68px;"/><path d="M480.567,387.356l-0,48.921" style="fill:none;stroke:#ffe7db;stroke-width:3.68px;"/><path d="M541.367,387.356l-0,48.921" style="fill:none;stroke:#ffe7db;stroke-width:3.68px;"/><path d="M412.599,387.356l0,48.921" style="fill:none;stroke:#ffe7db;stroke-width:3.68px;"/><path d="M356.758,421.014l247.617,0" style="fill:none;stroke:#ffe7db;stroke-width:3.68px;"/></g></g></g></g><g id="References"></g></svg>