<?xml version="1.0" encoding="UTF-8" standalone="no"?><!DOCTYPE svg PUBLIC "-//W3C//DTD SVG 1.1//EN" "http://www.w3.org/Graphics/SVG/1.1/DTD/svg11.dtd"><svg width="100%" height="100%" viewBox="0 0 192 72" version="1.1" xmlns="http://www.w3.org/2000/svg" xmlns:xlink="http://www.w3.org/1999/xlink" xml:space="preserve" xmlns:serif="http://www.serif.com/" style="fill-rule:evenodd;clip-rule:evenodd;stroke-linejoin:round;stroke-miterlimit:2;"><path d="M189.82,25.756l-56.092,0c-0,0 -14.432,-8.552 -0.211,-15.033c-0,0 0.948,-11.421 12.536,-10.689c11.587,0.732 12.746,8.87 12.746,8.87c-0,-0 1.58,-3.187 4.53,-3.082c2.949,0.105 5.182,1.666 5.182,3.564c-0,0 5.523,-0.259 5.825,2.934c-0,0 6.558,0.345 6.3,4.142c-0,0 6.99,-0.733 6.99,3.193c-0,0 7.798,3.573 2.194,6.101Z" style="fill:url(#_Linear1);"/><path d="M16.689,30.784c0.782,-2.895 3.429,-5.028 6.57,-5.028c3.756,0 6.805,3.049 6.805,6.805c-0,0.168 -0.007,0.336 -0.019,0.502l0.019,-0c2.333,-0 4.227,1.894 4.227,4.227c-0,0.831 -0.241,1.606 -0.656,2.26c1.626,0.513 2.807,2.034 2.807,3.829c0,2.216 -1.799,4.014 -4.014,4.014l-29.49,0c-1.621,0 -2.938,-1.316 -2.938,-2.938c0,-1.622 1.317,-2.938 2.938,-2.938c0.058,-0 0.114,0.001 0.171,0.005c-0.112,-0.444 -0.171,-0.909 -0.171,-1.387c0,-3.139 2.549,-5.688 5.688,-5.688c0.152,0 0.304,0.007 0.453,0.018c-0.29,-0.572 -0.453,-1.219 -0.453,-1.904c-0,-2.333 1.894,-4.227 4.227,-4.227c1.699,-0 3.165,1.004 3.836,2.45Z" style="fill:url(#_Linear2);"/><path d="M145.758,71.522l-58.895,0c-0,0 -5.58,0.377 -6.2,-5.144c-0.686,-6.103 6.131,-8.092 10.109,-7.269c0,-0 -0.684,-8.005 7.458,-10.12c7.884,-2.048 11.111,6.292 11.111,6.292c-0,0 2.229,-4.886 7.372,-4.886c5.144,-0 7.167,4.389 7.03,6.172c-0,-0 11.35,-2.486 11.35,3.686c0,0 8.367,0.686 8.367,5.212c0,0 5.418,0.729 2.298,6.057Z" style="fill:url(#_Linear3);"/><defs><linearGradient id="_Linear1" x1="0" y1="0" x2="1" y2="0" gradientUnits="userSpaceOnUse" gradientTransform="matrix(3.16066e-16,5.16175,-5.16175,3.16066e-16,162.489,20.5945)"><stop offset="0" style="stop-color:#fff;stop-opacity:1"/><stop offset="1" style="stop-color:#b3b3b3;stop-opacity:1"/></linearGradient><linearGradient id="_Linear2" x1="0" y1="0" x2="1" y2="0" gradientUnits="userSpaceOnUse" gradientTransform="matrix(5.99313e-16,9.78752,-9.78752,5.99313e-16,18.1317,41.3448)"><stop offset="0" style="stop-color:#fff;stop-opacity:1"/><stop offset="1" style="stop-color:#b3b3b3;stop-opacity:1"/></linearGradient><linearGradient id="_Linear3" x1="0" y1="0" x2="1" y2="0" gradientUnits="userSpaceOnUse" gradientTransform="matrix(9.31749e-16,15.2166,-15.2166,9.31749e-16,113.695,63.8195)"><stop offset="0" style="stop-color:#fff;stop-opacity:1"/><stop offset="1" style="stop-color:#b3b3b3;stop-opacity:1"/></linearGradient></defs></svg>