<?xml version="1.0" encoding="UTF-8" standalone="no"?><!DOCTYPE svg PUBLIC "-//W3C//DTD SVG 1.1//EN" "http://www.w3.org/Graphics/SVG/1.1/DTD/svg11.dtd"><svg width="100%" height="100%" viewBox="0 0 800 1151" version="1.1" xmlns="http://www.w3.org/2000/svg" xmlns:xlink="http://www.w3.org/1999/xlink" xml:space="preserve" xmlns:serif="http://www.serif.com/" style="fill-rule:evenodd;clip-rule:evenodd;stroke-linejoin:round;stroke-miterlimit:2;"><g id="Layer3"></g><g id="Layer4"></g><rect id="Artboard3" x="0" y="0" width="800" height="1150.4" style="fill:none;"/><rect x="0" y="0" width="800" height="1150.39" style="fill:none;"/><clipPath id="_clip1"><rect x="0" y="0" width="800" height="1150.39"/></clipPath><g clip-path="url(#_clip1)"><g id="Buildings_2"><g id="Right_2"><rect x="685.193" y="117.19" width="163.958" height="394.078" style="fill:#e4b190;"/><path d="M645.575,63.097l39.618,54.093l163.958,0l-4.788,-54.093l-198.788,0Z" style="fill:#e1b99f;"/><path d="M645.575,318.227l39.618,193.041l0,-394.76l-39.618,-53.411l-0,255.13Z" style="fill:#ecc9b2;"/><rect x="618.812" y="116.24" width="27.713" height="82.98" style="fill:#a05a2a;"/><path d="M679.575,293.287l-0.569,187.446l-32.442,-158.156l1.037,-36.724l31.974,7.434Z" style="fill:#8b4a1e;"/><path d="M646.564,322.433l3.02,-0.221l2.227,-31.449l-4.205,0.15l-1.042,31.52Z" style="fill:#b25f26;"/><rect x="621.759" y="120.88" width="21.819" height="73.699" style="fill:#b76730;"/><path d="M682.414,258.774l0,34.513l-43.57,0l43.57,-34.513Z" style="fill:#cb6d2c;"/><path d="M682.414,258.774l-30.823,-39.503l-27.369,25.05l14.622,48.966l43.57,-34.513Z" style="fill:#cb6d2c;"/><g><path d="M649.996,117.19l0,63.252l29.553,43.292l-0.26,-67.919l-29.293,-38.625Z" style="fill:#b76730;"/><path d="M652.186,125.084l-0,53.879l25.173,36.877l-0.221,-57.854l-24.952,-32.902Z" style="fill:#ce7d45;"/><path d="M662.524,133.569l0,65.169l2.86,3.186l-0,-64.24l-2.86,-4.115Z" style="fill:#b76730;"/><path d="M649.996,117.19l-1.025,0l-0,63.144l1.025,0.094l0,-63.238Z" style="fill:#e2ac88;"/><path d="M649.996,180.428l-1.025,-0l29.682,43.306l0.896,-0l-29.553,-43.306Z" style="fill:#e4b190;"/></g><path d="M649.583,322.189l29.341,132.554l0.163,25.99l-32.523,-158.3l3.019,-0.244Z" style="fill:#a36235;"/></g><g id="Left_2"><rect x="-52.076" y="177.613" width="163.958" height="267.754" style="fill:#e4b190;"/><path d="M151.501,123.521l-39.619,54.092l-163.958,0l4.788,-54.092l198.789,-0Z" style="fill:#e1b99f;"/><path d="M151.501,318.227l-39.25,127.141l-0.369,-268.436l39.619,-53.411l-0,194.706Z" style="fill:#ecc9b2;"/><path d="M117.5,293.287l-0.184,137.362l10.582,-36.414l-0.103,-107.052l-10.295,6.104Z" style="fill:#8b4a1e;"/><path d="M150.511,322.433l-3.019,-0.221l-1.116,-31.449l3.094,0.15l1.041,31.52Z" style="fill:#b25f26;"/><path d="M147.438,322.189l-1.549,-44.993l-15.296,20.13l2.283,72.483l14.562,-47.62Z" style="fill:#8b4a1e;"/><path d="M147.492,322.189l-14.616,47.62l0.439,7.403l17.196,-54.779l-3.019,-0.244Z" style="fill:#a36235;"/><path d="M147.079,141.28l0.291,38.767l-29.552,43.291l-0.032,-43.433l29.293,-38.625Z" style="fill:#b76730;"/><path d="M144.889,149.174l0.292,29.394l-25.174,36.876l-0.07,-33.368l24.952,-32.902Z" style="fill:#ce7d45;"/><path d="M114.661,258.774l29.096,-39.503l30.534,0l-16.059,39.503l-43.571,-0Z" style="fill:#cd6e2c;"/><path d="M158.232,293.287l16.059,-49.828l0,-24.188l-16.059,39.503l-0,34.513Z" style="fill:#cb6d2c;"/><rect x="114.661" y="258.774" width="43.571" height="34.514" style="fill:#cb6d2c;"/><path d="M147.079,180.428l1.026,-0l-29.683,43.306l-0.895,-0l29.552,-43.306Z" style="fill:#e4b190;"/><path d="M147.079,141.28l1.026,-1.361l-0,40.415l-1.026,0.094l0,-39.148Z" style="fill:#e2ac88;"/></g></g></g><g id="Layer6"></g><g id="Sky"></g><g id="BackBuildings"></g><g id="FrontBuilding"></g><g id="BusStation"></g><g id="Bus"></g><g id="Hospital"></g><g id="Layer7"></g></svg>