<?xml version="1.0" encoding="UTF-8" standalone="no"?><!DOCTYPE svg PUBLIC "-//W3C//DTD SVG 1.1//EN" "http://www.w3.org/Graphics/SVG/1.1/DTD/svg11.dtd"><svg width="100%" height="100%" viewBox="0 0 800 1151" version="1.1" xmlns="http://www.w3.org/2000/svg" xmlns:xlink="http://www.w3.org/1999/xlink" xml:space="preserve" xmlns:serif="http://www.serif.com/" style="fill-rule:evenodd;clip-rule:evenodd;stroke-linejoin:round;stroke-miterlimit:2;"><g id="Layer3"></g><g id="Layer4"></g><rect id="Artboard3" x="0" y="0" width="800" height="1150.4" style="fill:none;"/><rect x="0" y="0" width="800" height="1150.39" style="fill:none;"/><clipPath id="_clip1"><rect x="0" y="0" width="800" height="1150.39"/></clipPath><g clip-path="url(#_clip1)"><g id="Buildings_3"><g id="Right_3"><path d="M693.683,556.47l39.619,193.041l0,-382.488l-39.619,-65.683l0,255.13Z" style="fill:#ecc9b2;"/><rect x="733.302" y="367.705" width="163.958" height="381.806" style="fill:#e7b99c;"/><path d="M897.26,367.705l-163.958,0l-39.619,-66.365l173.899,0l29.678,66.365Z" style="fill:#e1b99f;"/><path d="M696.586,571.428l2.757,-59.419l27.297,20.316l-1.183,178.78l-28.871,-139.677Z" style="fill:#8b4a1e;"/><path d="M693.683,401.49l39.619,71.616l0,104.167l-28.668,0l-39.25,-175.783l28.299,0Z" style="fill:#dc9c71;"/><path d="M665.015,401.49l39.619,71.616l0,104.167l-39.619,-113.177l0,-62.606Z" style="fill:#e0a883;"/></g><g id="Left_3"><path d="M103.392,556.47l-39.619,193.041l0,-383.819l39.619,-65.683l-0,256.461Z" style="fill:#ecc9b2;"/><path d="M96.981,579.407l-19.81,96.246l0,-141.969l19.81,-49.138l-0,94.861Z" style="fill:#8b4a1e;"/><clipPath id="_clip2"><path d="M96.981,579.407l-19.81,96.246l0,-141.969l19.81,-49.138l-0,94.861Z"/></clipPath><g clip-path="url(#_clip2)"><rect x="93.81" y="481.751" width="15.177" height="98.808" style="fill:#a95d2a;"/><path d="M108.844,580.158l-22.366,105.472l-14.847,-3.148l22.366,-105.472l14.847,3.148Z" style="fill:#a95d2a;"/></g><rect x="-100.184" y="366.374" width="163.958" height="383.137" style="fill:#e7b99c;"/><g><path d="M99.473,343.247l-0,63.253l-22.302,53.841l0.196,-68.011l22.106,-49.083Z" style="fill:#b76730;"/><path d="M97.82,351.923l0,53.879l-18.996,45.863l0.166,-57.933l18.83,-41.809Z" style="fill:#ce7d45;"/><path d="M90.019,364.099l-0,65.169l-2.158,4.206l-0,-64.239l2.158,-5.136Z" style="fill:#b76730;"/><path d="M99.473,343.247l0.774,-0.366l-0,63.145l-0.774,0.459l-0,-63.238Z" style="fill:#e2ac88;"/><path d="M99.473,406.485l0.774,-0.366l-22.4,53.902l-0.676,0.32l22.302,-53.856Z" style="fill:#e4b190;"/></g><path d="M-100.184,366.374l163.957,0l39.619,-66.365l-173.899,0l-29.677,66.365Z" style="fill:#e1b99f;"/></g></g></g><g id="Layer6"></g><g id="Sky"></g><g id="BackBuildings"></g><g id="FrontBuilding"></g><g id="BusStation"></g><g id="Bus"></g><g id="Hospital"></g><g id="Layer7"></g></svg>