<?xml version="1.0" encoding="UTF-8" standalone="no"?><!DOCTYPE svg PUBLIC "-//W3C//DTD SVG 1.1//EN" "http://www.w3.org/Graphics/SVG/1.1/DTD/svg11.dtd"><svg width="100%" height="100%" viewBox="0 0 800 797" version="1.1" xmlns="http://www.w3.org/2000/svg" xmlns:xlink="http://www.w3.org/1999/xlink" xml:space="preserve" xmlns:serif="http://www.serif.com/" style="fill-rule:evenodd;clip-rule:evenodd;stroke-linecap:round;stroke-linejoin:round;stroke-miterlimit:1.5;"><g id="Layer3"></g><g id="Layer4"></g><g id="Layer6"></g><rect id="Artboard4" x="0" y="0" width="800" height="797" style="fill:none;"/><g id="Hospital"><g id="Building"><path d="M175.002,625.714c-2.149,2.545 -67.347,7.336 -92.74,7.113c-6.132,-0.054 -77.935,0.241 -78.3,-8.852c-0.224,-5.574 44.284,-6.401 39.016,-5.913l51.956,-7.114c-0,-0 82.162,12.285 80.068,14.766Z" style="fill:#fabe7c;"/><clipPath id="_clip1"><path d="M175.002,625.714c-2.149,2.545 -67.347,7.336 -92.74,7.113c-6.132,-0.054 -77.935,0.241 -78.3,-8.852c-0.224,-5.574 44.284,-6.401 39.016,-5.913l51.956,-7.114c-0,-0 82.162,12.285 80.068,14.766Z"/></clipPath><g clip-path="url(#_clip1)"><path d="M169.533,625.771c-2.149,2.545 -59.404,4.849 -84.797,4.626c-6.132,-0.054 -76.124,-2.019 -76.459,-6.78c-0.229,-3.261 43.632,-4.043 38.364,-3.555l53.687,-2.689c-0,-0 71.299,5.917 69.205,8.398Z" style="fill:#a0ad3a;"/><clipPath id="_clip2"><path d="M169.533,625.771c-2.149,2.545 -59.404,4.849 -84.797,4.626c-6.132,-0.054 -76.124,-2.019 -76.459,-6.78c-0.229,-3.261 43.632,-4.043 38.364,-3.555l53.687,-2.689c-0,-0 71.299,5.917 69.205,8.398Z"/></clipPath><g clip-path="url(#_clip2)"><path d="M167.846,624.893c-2.149,2.546 -53.036,5.412 -78.429,5.188c-6.132,-0.054 -76.124,-2.018 -76.459,-6.78c-0.229,-3.261 43.632,-4.042 38.364,-3.554l53.686,-2.69c0,0 64.932,5.356 62.838,7.836Z" style="fill:#2b7048;"/></g></g><path d="M97.583,467.993l-36.943,18.471l1.297,14.583l34.836,-11.342l0.81,-21.712Z" style="fill:#b6a38b;"/><path d="M95.979,480.794l-0,143.992l-59.496,-2.215l0,-113.295l59.496,-28.482Z" style="fill:#cdb9a0;"/><g id="Antenas"><g><rect x="520.58" y="235.446" width="1.766" height="72.716" style="fill:#003574;"/><rect x="525.565" y="241.887" width="1.929" height="68.13" style="fill:#003574;"/><rect x="521.224" y="254.789" width="5.185" height="3.135" style="fill:#003574;"/><rect x="521.827" y="275.289" width="4.944" height="2.773" style="fill:#003574;"/><rect x="520.983" y="297.476" width="5.909" height="3.618" style="fill:#003574;"/></g><rect x="401.969" y="314.166" width="3.297" height="80.311" style="fill:#003574;"/><rect x="328.252" y="360.563" width="1.649" height="29.204" style="fill:#003574;"/><rect x="293.16" y="321.467" width="2.355" height="63.354" style="fill:#003574;"/><path d="M299.048,344.195l0,13.66c0,1.105 -0.897,2.002 -2.002,2.002l-4.004,-0c-1.105,-0 -2.002,-0.897 -2.002,-2.002l0,-13.66c0,-1.105 0.897,-2.002 2.002,-2.002l4.004,-0c1.105,-0 2.002,0.897 2.002,2.002Z" style="fill:#003574;"/><rect x="287.508" y="332.301" width="2.12" height="54.169" style="fill:#003574;"/><rect x="288.209" y="362.494" width="6.873" height="2.894" style="fill:#003574;"/></g><path d="M97.259,467.993l76.317,13.61l-0,13.611l-76.803,-10.694l0.486,-16.527Z" style="fill:#f2d5b0;"/><path d="M305.136,372.575l-20.76,6.076l0.506,15.19l21.52,2.785l-1.266,-24.051Z" style="fill:#fde6c9;"/><path d="M304.883,373.081l33.925,13.672l-0.76,24.557l-31.646,-4.81l-1.519,-33.419Z" style="fill:#e4c4a3;"/><path d="M237.586,437.118l-35.998,14.637l-2.373,163.375l40.745,-1.582l-2.374,-176.43Z" style="fill:#e4c4a3;"/><path d="M236.004,405.076l46.679,-20.966l0.395,174.848l-46.283,5.142l-0.791,-159.024Z" style="fill:#fde6c9;"/><path d="M281.891,382.923l59.338,19.384l-1.978,217.966l-58.942,2.373l1.582,-239.723Z" style="fill:#e4c4a3;"/><path d="M212.913,498.991l0,120.653l-116.934,4.747l-0,-142.806l116.934,17.406Z" style="fill:#fde6c9;"/><path d="M331.809,414.584l221.032,-94.94l-0,309.049l-222.515,-4.45l1.483,-209.659Z" style="fill:#fde6c9;"/><path d="M497.459,314.205l54.887,-23.241l0.495,63.294l-53.404,7.417l-1.978,-47.47Z" style="fill:#fde6c9;"/><path d="M227.379,563.68l12.292,11.107l5.587,-3.6l-9.927,-8.643l-7.952,1.136Z" style="fill:#ccab88;"/><path d="M347.14,559.042l-63.992,-7.224l-56.026,6.983l0.27,5.217l55.756,-3.896l64.166,6.124l-0.174,-7.204Z" style="fill:#e6bd92;"/><path d="M347.466,565.923l-16.447,3.663l-49.255,-5.475l-48.248,4.974l-6.309,-5.26l56.095,-6.717l64.164,8.815Z" style="fill:#ccab88;"/><path d="M552.346,289.481l69.227,63.788l-1.483,281.358l-69.227,-3.956l1.483,-341.19Z" style="fill:#e4c4a3;"/><path d="M281.59,563.809l-1.471,59.324l-43.422,-1.109l-0.94,-52.9l45.833,-5.315Z" style="fill:#fde6c9;"/><clipPath id="_clip3"><path d="M281.59,563.809l-1.471,59.324l-43.422,-1.109l-0.94,-52.9l45.833,-5.315Z"/></clipPath><g clip-path="url(#_clip3)"><path id="Door" d="M245.195,580.397l27.849,-0.76l-0.759,52.407l-28.609,-1.772l1.519,-49.875Z" style="fill:#236e8c;"/><clipPath id="_clip4"><path d="M245.195,580.397l27.849,-0.76l-0.759,52.407l-28.609,-1.772l1.519,-49.875Z"/></clipPath><g clip-path="url(#_clip4)"><rect x="257.096" y="570.514" width="25.624" height="74.612" style="fill:#3690b3;"/></g></g><g><g id="Windows"><path id="Window" d="M471.409,374.289l21.777,-8.944l0.259,22.166l-21.518,7.388l-0.518,-20.61Z" style="fill:#1a4d6c;"/><clipPath id="_clip5"><path id="Window1" serif:id="Window" d="M471.409,374.289l21.777,-8.944l0.259,22.166l-21.518,7.388l-0.518,-20.61Z"/></clipPath><g clip-path="url(#_clip5)"><path d="M474.656,375.794l20.733,-8.245l0.908,20.61l-21.129,7.648l-0.512,-20.013Z" style="fill:#247395;"/><clipPath id="_clip6"><path d="M474.656,375.794l20.733,-8.245l0.908,20.61l-21.129,7.648l-0.512,-20.013Z"/></clipPath><g clip-path="url(#_clip6)"><path d="M482.52,370.086l0.243,25.534l-13.936,1.003l-2.633,-22.076l16.326,-4.461Z" style="fill:#287a9b;"/></g></g><path id="Window2" serif:id="Window" d="M473.616,418.556l22.101,-7.324l0.26,22.166l-21.842,5.768l-0.519,-20.61Z" style="fill:#1a4d6c;"/><clipPath id="_clip7"><path d="M473.616,418.556l22.101,-7.324l0.26,22.166l-21.842,5.768l-0.519,-20.61Z"/></clipPath><g clip-path="url(#_clip7)"><path d="M476.701,420.547l21.22,-7.111l0.907,20.61l-21.128,7.648l-0.999,-21.147Z" style="fill:#247395;"/><clipPath id="_clip8"><path d="M476.701,420.547l21.22,-7.111l0.907,20.61l-21.128,7.648l-0.999,-21.147Z"/></clipPath><g clip-path="url(#_clip8)"><path d="M485.052,415.973l0.243,25.535l-13.936,1.003l-2.633,-22.077l16.326,-4.461Z" style="fill:#287a9b;"/></g></g><path id="Window3" serif:id="Window" d="M513.654,409.43l22.101,-7.324l0.26,22.166l-21.842,5.768l-0.519,-20.61Z" style="fill:#1a4d6c;"/><clipPath id="_clip9"><path d="M513.654,409.43l22.101,-7.324l0.26,22.166l-21.842,5.768l-0.519,-20.61Z"/></clipPath><g clip-path="url(#_clip9)"><path d="M516.739,411.421l21.22,-7.111l0.907,20.61l-21.128,7.648l-0.999,-21.147Z" style="fill:#247395;"/><clipPath id="_clip10"><path d="M516.739,411.421l21.22,-7.111l0.907,20.61l-21.128,7.648l-0.999,-21.147Z"/></clipPath><g clip-path="url(#_clip10)"><path d="M525.09,406.847l0.243,25.534l-13.936,1.003l-2.633,-22.076l16.326,-4.461Z" style="fill:#287a9b;"/></g></g><path id="Window4" serif:id="Window" d="M439.165,385.793l21.777,-8.944l0.259,22.166l-21.518,7.388l-0.518,-20.61Z" style="fill:#1a4d6c;"/><clipPath id="_clip11"><path d="M439.165,385.793l21.777,-8.944l0.259,22.166l-21.518,7.388l-0.518,-20.61Z"/></clipPath><g clip-path="url(#_clip11)"><path d="M442.412,387.298l20.733,-8.245l0.908,20.61l-21.129,7.648l-0.512,-20.013Z" style="fill:#247395;"/><clipPath id="_clip12"><path d="M442.412,387.298l20.733,-8.245l0.908,20.61l-21.129,7.648l-0.512,-20.013Z"/></clipPath><g clip-path="url(#_clip12)"><path d="M450.276,381.59l0.243,25.534l-13.936,1.003l-2.633,-22.076l16.326,-4.461Z" style="fill:#287a9b;"/></g></g><path id="Window5" serif:id="Window" d="M439.96,429.652l20.174,-6.731l0.242,21.315l-20.084,7.106l-0.332,-21.69Z" style="fill:#1a4d6c;"/><clipPath id="_clip13"><path d="M439.96,429.652l20.174,-6.731l0.242,21.315l-20.084,7.106l-0.332,-21.69Z"/></clipPath><g clip-path="url(#_clip13)"><path d="M442.839,431.411l19.351,-6.371l0.847,19.82l-19.72,7.354l-0.478,-20.803Z" style="fill:#247395;"/><clipPath id="_clip14"><path d="M442.839,431.411l19.351,-6.371l0.847,19.82l-19.72,7.354l-0.478,-20.803Z"/></clipPath><g clip-path="url(#_clip14)"><path d="M450.179,427.48l0.227,24.555l-13.007,0.964l-2.457,-21.229l15.237,-4.29Z" style="fill:#287a9b;"/></g></g><path id="Window6" serif:id="Window" d="M408.379,396.649l21.777,-8.944l0.259,22.166l-21.518,7.388l-0.518,-20.61Z" style="fill:#1a4d6c;"/><clipPath id="_clip15"><path d="M408.379,396.649l21.777,-8.944l0.259,22.166l-21.518,7.388l-0.518,-20.61Z"/></clipPath><g clip-path="url(#_clip15)"><path d="M411.626,398.154l20.733,-8.245l0.908,20.61l-21.129,7.648l-0.512,-20.013Z" style="fill:#247395;"/><clipPath id="_clip16"><path d="M411.626,398.154l20.733,-8.245l0.908,20.61l-21.129,7.648l-0.512,-20.013Z"/></clipPath><g clip-path="url(#_clip16)"><path d="M419.491,392.446l0.243,25.534l-13.937,1.003l-2.633,-22.076l16.327,-4.461Z" style="fill:#287a9b;"/></g></g><path id="Window7" serif:id="Window" d="M410.116,437.797l20.818,-6.691l0.246,20.708l-20.419,6.902l-0.645,-20.919Z" style="fill:#1a4d6c;"/><clipPath id="_clip17"><path d="M410.116,437.797l20.818,-6.691l0.246,20.708l-20.419,6.902l-0.645,-20.919Z"/></clipPath><g clip-path="url(#_clip17)"><path d="M412.735,439.808l20.29,-6.643l0.861,19.254l-20.049,7.145l-1.102,-19.756Z" style="fill:#247395;"/><clipPath id="_clip18"><path d="M412.735,439.808l20.29,-6.643l0.861,19.254l-20.049,7.145l-1.102,-19.756Z"/></clipPath><g clip-path="url(#_clip18)"><path d="M420.813,435.535l0.231,23.855l-13.224,0.937l-2.499,-20.624l15.492,-4.168Z" style="fill:#287a9b;"/></g></g><path d="M379.256,412.039l15.244,-5.6l0.207,16.177l-15.348,5.393l-0.103,-15.97Z" style="fill:#165284;"/><clipPath id="_clip19"><path d="M379.256,412.039l15.244,-5.6l0.207,16.177l-15.348,5.393l-0.103,-15.97Z"/></clipPath><g clip-path="url(#_clip19)"><path d="M381.433,414.113l14.415,-5.807l1.659,16.384l-15.348,4.563l-0.726,-15.14Z" style="fill:#1d6788;"/><clipPath id="_clip20"><path d="M381.433,414.113l14.415,-5.807l1.659,16.384l-15.348,4.563l-0.726,-15.14Z"/></clipPath><g clip-path="url(#_clip20)"><path d="M389.315,405.195l0.207,22.192l13.066,-1.141l-0.207,-21.258l-13.066,0.207Z" style="fill:#247395;"/></g></g><path d="M379.572,449.382l15.244,-5.6l0.207,16.177l-15.347,5.393l-0.104,-15.97Z" style="fill:#165284;"/><clipPath id="_clip21"><path d="M379.572,449.382l15.244,-5.6l0.207,16.177l-15.347,5.393l-0.104,-15.97Z"/></clipPath><g clip-path="url(#_clip21)"><path d="M381.75,451.456l14.414,-5.807l1.659,16.384l-15.347,4.563l-0.726,-15.14Z" style="fill:#1d6788;"/><clipPath id="_clip22"><path d="M381.75,451.456l14.414,-5.807l1.659,16.384l-15.347,4.563l-0.726,-15.14Z"/></clipPath><g clip-path="url(#_clip22)"><path d="M389.631,442.538l0.207,22.192l13.067,-1.141l-0.208,-21.259l-13.066,0.208Z" style="fill:#247395;"/></g></g><path d="M379.572,485.776l15.244,-5.6l0.207,16.177l-15.347,5.392l-0.104,-15.969Z" style="fill:#165284;"/><clipPath id="_clip23"><path d="M379.572,485.776l15.244,-5.6l0.207,16.177l-15.347,5.392l-0.104,-15.969Z"/></clipPath><g clip-path="url(#_clip23)"><path d="M381.75,487.85l14.414,-5.808l1.659,16.385l-15.347,4.563l-0.726,-15.14Z" style="fill:#1d6788;"/><clipPath id="_clip24"><path d="M381.75,487.85l14.414,-5.808l1.659,16.385l-15.347,4.563l-0.726,-15.14Z"/></clipPath><g clip-path="url(#_clip24)"><path d="M389.631,478.931l0.207,22.192l13.067,-1.141l-0.208,-21.258l-13.066,0.207Z" style="fill:#247395;"/></g></g><path d="M518.501,371.215l15.892,-5.924l0.207,16.339l-15.834,3.286l-0.265,-13.701Z" style="fill:#165284;"/><clipPath id="_clip25"><path d="M518.501,371.215l15.892,-5.924l0.207,16.339l-15.834,3.286l-0.265,-13.701Z"/></clipPath><g clip-path="url(#_clip25)"><path d="M520.678,373.289l14.414,-5.807l1.66,16.384l-15.348,4.563l-0.726,-15.14Z" style="fill:#3b93bb;"/><clipPath id="_clip26"><path d="M520.678,373.289l14.414,-5.807l1.66,16.384l-15.348,4.563l-0.726,-15.14Z"/></clipPath><g clip-path="url(#_clip26)"><path d="M528.559,364.371l0.208,22.192l13.066,-1.141l-0.207,-21.259l-13.067,0.208Z" style="fill:#247da4;"/></g></g><path d="M354.886,421.492l14.605,-5.331l0.198,15.4l-14.703,5.133l-0.1,-15.202Z" style="fill:#165284;"/><clipPath id="_clip27"><path d="M354.886,421.492l14.605,-5.331l0.198,15.4l-14.703,5.133l-0.1,-15.202Z"/></clipPath><g clip-path="url(#_clip27)"><path d="M356.973,423.466l13.809,-5.528l1.59,15.597l-14.704,4.343l-0.695,-14.412Z" style="fill:#1d6788;"/><clipPath id="_clip28"><path d="M356.973,423.466l13.809,-5.528l1.59,15.597l-14.704,4.343l-0.695,-14.412Z"/></clipPath><g clip-path="url(#_clip28)"><path d="M366.468,415.236l0.198,21.125l12.518,-1.086l-0.198,-20.237l-12.518,0.198Z" style="fill:#247395;"/></g></g><path d="M357.102,455.986l14.604,-5.33l0.199,15.399l-14.704,5.133l-0.099,-15.202Z" style="fill:#165284;"/><clipPath id="_clip29"><path d="M357.102,455.986l14.604,-5.33l0.199,15.399l-14.704,5.133l-0.099,-15.202Z"/></clipPath><g clip-path="url(#_clip29)"><path d="M359.188,457.961l13.81,-5.528l1.589,15.597l-14.704,4.343l-0.695,-14.412Z" style="fill:#1d6788;"/><clipPath id="_clip30"><path d="M359.188,457.961l13.81,-5.528l1.589,15.597l-14.704,4.343l-0.695,-14.412Z"/></clipPath><g clip-path="url(#_clip30)"><path d="M368.683,449.731l0.199,21.124l12.518,-1.086l-0.199,-20.236l-12.518,0.198Z" style="fill:#247395;"/></g></g><path d="M356.706,492.38l14.604,-5.331l0.199,15.4l-14.704,5.133l-0.099,-15.202Z" style="fill:#165284;"/><clipPath id="_clip31"><path d="M356.706,492.38l14.604,-5.331l0.199,15.4l-14.704,5.133l-0.099,-15.202Z"/></clipPath><g clip-path="url(#_clip31)"><path d="M358.792,494.354l13.81,-5.528l1.59,15.597l-14.704,4.343l-0.696,-14.412Z" style="fill:#1d6788;"/><clipPath id="_clip32"><path d="M358.792,494.354l13.81,-5.528l1.59,15.597l-14.704,4.343l-0.696,-14.412Z"/></clipPath><g clip-path="url(#_clip32)"><path d="M368.287,486.124l0.199,21.125l12.518,-1.086l-0.199,-20.236l-12.518,0.197Z" style="fill:#247395;"/></g></g><path d="M336.35,430.093l13.226,-4.858l0.18,14.036l-13.316,4.678l-0.09,-13.856Z" style="fill:#165284;"/><clipPath id="_clip33"><path d="M336.35,430.093l13.226,-4.858l0.18,14.036l-13.316,4.678l-0.09,-13.856Z"/></clipPath><g clip-path="url(#_clip33)"><path d="M338.24,431.893l12.506,-5.039l1.439,14.216l-13.316,3.959l-0.629,-13.136Z" style="fill:#1d6788;"/><clipPath id="_clip34"><path d="M338.24,431.893l12.506,-5.039l1.439,14.216l-13.316,3.959l-0.629,-13.136Z"/></clipPath><g clip-path="url(#_clip34)"><path d="M348.059,424.155l0.18,19.255l11.337,-0.99l-0.18,-18.445l-11.337,0.18Z" style="fill:#247395;"/></g></g><path d="M337.932,463.639l13.227,-4.859l0.179,14.036l-13.316,4.679l-0.09,-13.856Z" style="fill:#165284;"/><clipPath id="_clip35"><path d="M337.932,463.639l13.227,-4.859l0.179,14.036l-13.316,4.679l-0.09,-13.856Z"/></clipPath><g clip-path="url(#_clip35)"><path d="M339.822,465.438l12.506,-5.038l1.44,14.216l-13.316,3.958l-0.63,-13.136Z" style="fill:#1d6788;"/><clipPath id="_clip36"><path d="M339.822,465.438l12.506,-5.038l1.44,14.216l-13.316,3.958l-0.63,-13.136Z"/></clipPath><g clip-path="url(#_clip36)"><path d="M349.641,457.701l0.18,19.254l11.337,-0.99l-0.18,-18.444l-11.337,0.18Z" style="fill:#247395;"/></g></g><path d="M338.724,498.054l13.226,-4.858l0.18,14.036l-13.316,4.678l-0.09,-13.856Z" style="fill:#165284;"/><clipPath id="_clip37"><path d="M338.724,498.054l13.226,-4.858l0.18,14.036l-13.316,4.678l-0.09,-13.856Z"/></clipPath><g clip-path="url(#_clip37)"><path d="M340.613,499.854l12.506,-5.039l1.44,14.216l-13.316,3.959l-0.63,-13.136Z" style="fill:#1d6788;"/><clipPath id="_clip38"><path d="M340.613,499.854l12.506,-5.039l1.44,14.216l-13.316,3.959l-0.63,-13.136Z"/></clipPath><g clip-path="url(#_clip38)"><path d="M350.432,492.116l0.18,19.255l11.337,-0.99l-0.18,-18.445l-11.337,0.18Z" style="fill:#247395;"/></g></g><path d="M495.048,503.749l0,18.925l-20.869,2.852l-0,-18.925l20.869,-2.852Z" style="fill:#134f7c;"/><clipPath id="_clip39"><path d="M495.048,503.749l0,18.925l-20.869,2.852l-0,-18.925l20.869,-2.852Z"/></clipPath><g clip-path="url(#_clip39)"><path d="M497.252,505.953l-0,18.925l-20.87,2.851l0,-18.925l20.87,-2.851Z" style="fill:#247da4;"/><clipPath id="_clip40"><path d="M497.252,505.953l-0,18.925l-20.87,2.851l0,-18.925l20.87,-2.851Z"/></clipPath><g clip-path="url(#_clip40)"><rect x="483.901" y="504.916" width="18.147" height="22.684" style="fill:#2570a8;"/></g></g><path d="M534.792,497.272l-0,18.925l-20.87,2.852l0,-18.925l20.87,-2.852Z" style="fill:#134f7c;"/><clipPath id="_clip41"><path d="M534.792,497.272l-0,18.925l-20.87,2.852l0,-18.925l20.87,-2.852Z"/></clipPath><g clip-path="url(#_clip41)"><path d="M536.995,499.476l0,18.925l-20.869,2.852l-0,-18.925l20.869,-2.852Z" style="fill:#247da4;"/><clipPath id="_clip42"><path d="M536.995,499.476l0,18.925l-20.869,2.852l-0,-18.925l20.869,-2.852Z"/></clipPath><g clip-path="url(#_clip42)"><rect x="523.644" y="498.439" width="18.147" height="22.684" style="fill:#2570a8;"/></g></g><path d="M495.048,459.472l0,18.925l-20.869,2.852l-0,-18.926l20.869,-2.851Z" style="fill:#134f7c;"/><clipPath id="_clip43"><path d="M495.048,459.472l0,18.925l-20.869,2.852l-0,-18.926l20.869,-2.851Z"/></clipPath><g clip-path="url(#_clip43)"><path d="M497.252,461.675l-0,18.925l-20.87,2.852l0,-18.925l20.87,-2.852Z" style="fill:#247da4;"/><clipPath id="_clip44"><path d="M497.252,461.675l-0,18.925l-20.87,2.852l0,-18.925l20.87,-2.852Z"/></clipPath><g clip-path="url(#_clip44)"><rect x="483.901" y="460.638" width="18.147" height="22.684" style="fill:#2570a8;"/></g></g><path d="M533.614,452.406l0,18.925l-20.869,2.852l-0,-18.925l20.869,-2.852Z" style="fill:#134f7c;"/><clipPath id="_clip45"><path d="M533.614,452.406l0,18.925l-20.869,2.852l-0,-18.925l20.869,-2.852Z"/></clipPath><g clip-path="url(#_clip45)"><path d="M535.818,454.61l-0,18.925l-20.87,2.852l0,-18.925l20.87,-2.852Z" style="fill:#247da4;"/><clipPath id="_clip46"><path d="M535.818,454.61l-0,18.925l-20.87,2.852l0,-18.925l20.87,-2.852Z"/></clipPath><g clip-path="url(#_clip46)"><rect x="522.467" y="453.573" width="18.147" height="22.684" style="fill:#2570a8;"/></g></g><path d="M461.022,509.096l-0,18.925l-20.87,2.852l0,-18.925l20.87,-2.852Z" style="fill:#134f7c;"/><clipPath id="_clip47"><path d="M461.022,509.096l-0,18.925l-20.87,2.852l0,-18.925l20.87,-2.852Z"/></clipPath><g clip-path="url(#_clip47)"><path d="M463.226,511.3l-0,18.925l-20.87,2.851l0,-18.925l20.87,-2.851Z" style="fill:#247da4;"/><clipPath id="_clip48"><path d="M463.226,511.3l-0,18.925l-20.87,2.851l0,-18.925l20.87,-2.851Z"/></clipPath><g clip-path="url(#_clip48)"><rect x="449.874" y="510.263" width="18.147" height="22.684" style="fill:#2570a8;"/></g></g><path d="M460.08,466.467l-0,18.925l-20.87,2.852l0,-18.925l20.87,-2.852Z" style="fill:#134f7c;"/><clipPath id="_clip49"><path d="M460.08,466.467l-0,18.925l-20.87,2.852l0,-18.925l20.87,-2.852Z"/></clipPath><g clip-path="url(#_clip49)"><path d="M462.283,468.671l0,18.925l-20.869,2.852l-0,-18.925l20.869,-2.852Z" style="fill:#247da4;"/><clipPath id="_clip50"><path d="M462.283,468.671l0,18.925l-20.869,2.852l-0,-18.925l20.869,-2.852Z"/></clipPath><g clip-path="url(#_clip50)"><rect x="448.932" y="467.634" width="18.147" height="22.684" style="fill:#2570a8;"/></g></g><path d="M427.32,513.633l-0,17.798l-19.25,2.682l0,-17.798l19.25,-2.682Z" style="fill:#134f7c;"/><clipPath id="_clip51"><path d="M427.32,513.633l-0,17.798l-19.25,2.682l0,-17.798l19.25,-2.682Z"/></clipPath><g clip-path="url(#_clip51)"><path d="M429.352,515.705l0,17.799l-19.249,2.682l-0,-17.799l19.249,-2.682Z" style="fill:#247da4;"/><clipPath id="_clip52"><path d="M429.352,515.705l0,17.799l-19.249,2.682l-0,-17.799l19.249,-2.682Z"/></clipPath><g clip-path="url(#_clip52)"><rect x="417.037" y="514.73" width="16.738" height="21.334" style="fill:#2570a8;"/></g></g><path d="M428.968,472.888l0,17.799l-19.249,2.682l0,-17.799l19.249,-2.682Z" style="fill:#134f7c;"/><clipPath id="_clip53"><path d="M428.968,472.888l0,17.799l-19.249,2.682l0,-17.799l19.249,-2.682Z"/></clipPath><g clip-path="url(#_clip53)"><path d="M431.001,474.961l-0,17.798l-19.249,2.682l-0,-17.798l19.249,-2.682Z" style="fill:#247da4;"/><clipPath id="_clip54"><path d="M431.001,474.961l-0,17.798l-19.249,2.682l-0,-17.798l19.249,-2.682Z"/></clipPath><g clip-path="url(#_clip54)"><rect x="418.686" y="473.985" width="16.738" height="21.334" style="fill:#2570a8;"/></g></g><path d="M394.164,520.238l-0,15.658l-14.414,1.97l-0,-15.658l14.414,-1.97Z" style="fill:#134f7c;"/><clipPath id="_clip55"><path d="M394.164,520.238l-0,15.658l-14.414,1.97l-0,-15.658l14.414,-1.97Z"/></clipPath><g clip-path="url(#_clip55)"><path d="M395.927,522.208l-0,15.658l-14.415,1.971l0,-15.659l14.415,-1.97Z" style="fill:#247da4;"/><clipPath id="_clip56"><path d="M395.927,522.208l-0,15.658l-14.415,1.971l0,-15.659l14.415,-1.97Z"/></clipPath><g clip-path="url(#_clip56)"><path d="M402.252,519.097l0,19.251l-14.414,2.422l0,-19.251l14.414,-2.422Z" style="fill:#2570a8;"/></g></g><path d="M368.986,524.386l-0,14.716l-13.45,1.851l0,-14.716l13.45,-1.851Z" style="fill:#134f7c;"/><clipPath id="_clip57"><path d="M368.986,524.386l-0,14.716l-13.45,1.851l0,-14.716l13.45,-1.851Z"/></clipPath><g clip-path="url(#_clip57)"><path d="M370.631,526.237l-0,14.716l-13.45,1.852l0,-14.716l13.45,-1.852Z" style="fill:#247da4;"/><clipPath id="_clip58"><path d="M370.631,526.237l-0,14.716l-13.45,1.852l0,-14.716l13.45,-1.852Z"/></clipPath><g clip-path="url(#_clip58)"><path d="M376.533,523.314l-0,18.092l-13.45,2.276l0,-18.092l13.45,-2.276Z" style="fill:#2570a8;"/></g></g><path d="M348.824,527.183l-0,14.031l-12.581,1.765l-0,-14.03l12.581,-1.766Z" style="fill:#134f7c;"/><clipPath id="_clip59"><path d="M348.824,527.183l-0,14.031l-12.581,1.765l-0,-14.03l12.581,-1.766Z"/></clipPath><g clip-path="url(#_clip59)"><path d="M350.363,528.949l-0,14.03l-12.582,1.766l0,-14.031l12.582,-1.765Z" style="fill:#247da4;"/><clipPath id="_clip60"><path d="M350.363,528.949l-0,14.03l-12.582,1.766l0,-14.031l12.582,-1.765Z"/></clipPath><g clip-path="url(#_clip60)"><path d="M355.884,526.161l-0,17.249l-12.581,2.171l-0,-17.249l12.581,-2.171Z" style="fill:#2570a8;"/></g></g><rect x="473.771" y="551.768" width="20.162" height="20.162" style="fill:#174668;"/><clipPath id="_clip61"><rect x="473.771" y="551.768" width="20.162" height="20.162"/></clipPath><g clip-path="url(#_clip61)"><rect x="476.375" y="553.6" width="20.355" height="21.126" style="fill:#1f6b8e;"/></g><rect x="441.068" y="552.925" width="18.715" height="18.232" style="fill:#1f5176;"/><clipPath id="_clip62"><rect x="441.068" y="552.925" width="18.715" height="18.232"/></clipPath><g clip-path="url(#_clip62)"><rect x="443.486" y="554.583" width="18.894" height="19.105" style="fill:#1f6b8e;"/></g><rect x="410.621" y="555.488" width="17.358" height="15.67" style="fill:#1f5176;"/><clipPath id="_clip63"><rect x="410.621" y="555.488" width="17.358" height="15.67"/></clipPath><g clip-path="url(#_clip63)"><rect x="412.863" y="556.912" width="17.524" height="16.42" style="fill:#1f6b8e;"/></g><rect x="379.118" y="560.462" width="15.549" height="14.163" style="fill:#1f5176;"/><clipPath id="_clip64"><rect x="379.118" y="560.462" width="15.549" height="14.163"/></clipPath><g clip-path="url(#_clip64)"><rect x="381.127" y="561.749" width="15.698" height="14.84" style="fill:#1f6b8e;"/></g></g><g><path d="M294.263,423.408l0.603,11.908l8.742,3.617l0.452,-11.757l-9.797,-3.768Z" style="fill:#164465;"/><path d="M316.976,429.871l-0.603,11.757l9.044,2.562l0.904,-11.154l-9.345,-3.165Z" style="fill:#164465;"/><path d="M294.517,452.933l-0.15,12.812l9.646,3.165l0.754,-12.661l-10.25,-3.316Z" style="fill:#164465;"/><path d="M317.278,461.524l-0.453,12.511l8.894,2.261l1.055,-12.963l-9.496,-1.809Z" style="fill:#164465;"/><path d="M294.216,489.108l0.151,13.415l9.646,1.959l0.453,-13.565l-10.25,-1.809Z" style="fill:#164465;"/><path d="M294.593,525.095l0.15,13.415l9.647,1.959l0.452,-13.565l-10.249,-1.809Z" style="fill:#164465;"/><path d="M317.391,527.921l0.15,13.415l9.647,1.96l0.452,-13.566l-10.249,-1.809Z" style="fill:#164465;"/><path d="M317.127,493.781l-0.302,12.962l9.647,2.261l-0.452,-13.113l-8.893,-2.11Z" style="fill:#164465;"/></g><g><path d="M256.304,419.072l0,12.541l9.357,-3.569l-0.193,-12.444l-9.164,3.472Z" style="fill:#164c6d;"/><clipPath id="_clip65"><path d="M256.304,419.072l0,12.541l9.357,-3.569l-0.193,-12.444l-9.164,3.472Z"/></clipPath><g clip-path="url(#_clip65)"><path d="M258.04,420.712l0.097,11.866l10.225,-1.737l0.193,-14.663l-10.515,4.534Z" style="fill:#25789c;"/></g><path d="M256.401,453.608l-0,12.541l9.357,-3.57l-0.193,-12.444l-9.164,3.473Z" style="fill:#164c6d;"/><clipPath id="_clip66"><path d="M256.401,453.608l-0,12.541l9.357,-3.57l-0.193,-12.444l-9.164,3.473Z"/></clipPath><g clip-path="url(#_clip66)"><path d="M258.137,455.248l0.096,11.865l10.226,-1.736l0.193,-14.663l-10.515,4.534Z" style="fill:#25789c;"/></g><path d="M255.887,489.663l0.289,13.891l9.261,-1.447l-0.483,-14.567l-9.067,2.123Z" style="fill:#0a4f9a;"/><clipPath id="_clip67"><path d="M255.887,489.663l0.289,13.891l9.261,-1.447l-0.483,-14.567l-9.067,2.123Z"/></clipPath><g clip-path="url(#_clip67)"><path d="M257.719,491.495l0.193,14.278l12.734,-0.676l-1.061,-16.11l-11.866,2.508Z" style="fill:#297897;"/></g><path d="M256.075,528.476l0.289,13.891l9.261,-1.447l-0.482,-14.567l-9.068,2.123Z" style="fill:#0a4f9a;"/><clipPath id="_clip68"><path d="M256.075,528.476l0.289,13.891l9.261,-1.447l-0.482,-14.567l-9.068,2.123Z"/></clipPath><g clip-path="url(#_clip68)"><path d="M257.908,530.309l0.193,14.277l12.733,-0.675l-1.061,-16.111l-11.865,2.509Z" style="fill:#297897;"/></g></g><path d="M317.588,580.991l0.301,39.793l9.496,-0.754l-0.15,-38.738l-9.647,-0.301Z" style="fill:#19476a;"/><path d="M140.341,506.857l43.989,5.248l-0.386,33.339l-43.989,-3.781l0.386,-34.806Z" style="fill:#0f4577;"/><clipPath id="_clip69"><path d="M140.341,506.857l43.989,5.248l-0.386,33.339l-43.989,-3.781l0.386,-34.806Z"/></clipPath><g clip-path="url(#_clip69)"><path d="M137.949,509.713l44.22,4.63l0.541,32.799l-44.839,-2.855l0.078,-34.574Z" style="fill:#206bb1;"/><clipPath id="_clip70"><path d="M137.949,509.713l44.22,4.63l0.541,32.799l-44.839,-2.855l0.078,-34.574Z"/></clipPath><g clip-path="url(#_clip70)"><g><path d="M157.011,506.24l0.077,40.362" style="fill:none;stroke:#669bd2;stroke-width:1px;"/><path d="M171.905,547.528l0,-41.983" style="fill:none;stroke:#669bd2;stroke-width:1px;"/><path d="M135.942,517.816l50.781,6.328" style="fill:none;stroke:#669bd2;stroke-width:1px;"/></g></g></g><path d="M80.491,510.289l-36.735,14.663l0.309,30.098l35.886,-10.727l0.54,-34.034Z" style="fill:#124d76;"/><clipPath id="_clip71"><path d="M80.491,510.289l-36.735,14.663l0.309,30.098l35.886,-10.727l0.54,-34.034Z"/></clipPath><g clip-path="url(#_clip71)"><path d="M45.763,525.724l0.231,30.561l35.732,-10.11l0.54,-34.728l-36.503,14.277Z" style="fill:#31859e;"/><clipPath id="_clip72"><path d="M45.763,525.724l0.231,30.561l35.732,-10.11l0.54,-34.728l-36.503,14.277Z"/></clipPath><g clip-path="url(#_clip72)"><path d="M53.557,519.087l-0.154,35.268" style="fill:none;stroke:#669bd2;stroke-width:1px;"/><path d="M62.509,551.191l-0.077,-35.345" style="fill:none;stroke:#669bd2;stroke-width:1px;"/><path d="M70.999,512.527l-0,36.272" style="fill:none;stroke:#669bd2;stroke-width:1px;"/><path d="M81.957,523.409l-39.744,13.968" style="fill:none;stroke:#669bd2;stroke-width:1px;"/></g></g><path d="M43.885,581.567l36.812,-5.633l-0.926,42.368l-36.503,0.54l0.617,-37.275Z" style="fill:#205a8c;"/><clipPath id="_clip73"><path d="M43.885,581.567l36.812,-5.633l-0.926,42.368l-36.503,0.54l0.617,-37.275Z"/></clipPath><g clip-path="url(#_clip73)"><path d="M45.892,582.725l0.54,38.664l35.268,-0.463l2.084,-44.143l-37.892,5.942Z" style="fill:#1f7ac9;"/><clipPath id="_clip74"><path d="M45.892,582.725l0.54,38.664l35.268,-0.463l2.084,-44.143l-37.892,5.942Z"/></clipPath><g clip-path="url(#_clip74)"><g><path d="M40.952,591.523l44.221,-3.087" style="fill:none;stroke:#6ca8eb;stroke-width:1px;"/><path d="M53.841,578.017l-1.004,45.379" style="fill:none;stroke:#6ca8eb;stroke-width:1px;"/><path d="M62.407,576.551l-0.155,46.845" style="fill:none;stroke:#6ca8eb;stroke-width:1px;"/><path d="M71.205,575.779l-0.155,47.771" style="fill:none;stroke:#6ca8eb;stroke-width:1px;"/></g></g></g><path d="M209.018,466.814l27.088,-9.261l0.231,12.271l-26.856,8.875l-0.463,-11.885Z" style="fill:#11416a;"/><clipPath id="_clip75"><path d="M209.018,466.814l27.088,-9.261l0.231,12.271l-26.856,8.875l-0.463,-11.885Z"/></clipPath><g clip-path="url(#_clip75)"><path d="M210.715,467.818l0.695,12.502l26.471,-9.184l-0.232,-12.888l-26.934,9.57Z" style="fill:#1b6eb5;"/><clipPath id="_clip76"><path d="M210.715,467.818l0.695,12.502l26.471,-9.184l-0.232,-12.888l-26.934,9.57Z"/></clipPath><g clip-path="url(#_clip76)"><g><path d="M218.047,461.026l0.54,19.602" style="fill:none;stroke:#6ca8eb;stroke-width:1px;"/><path d="M228.465,458.479l-0.308,18.214" style="fill:none;stroke:#6ca8eb;stroke-width:1px;"/></g></g></g><g><path d="M570.463,330.239l9.044,6.783l0.904,15.073l-9.948,-7.084l0,-14.772Z" style="fill:#164465;"/><path d="M603.154,360.795l5.691,5.499l-0.289,10.129l-5.595,-4.437l0.193,-11.191Z" style="fill:#164465;"/><path d="M587.429,404.206l5.885,4.63l-0.097,9.358l-6.077,-3.956l0.289,-10.032Z" style="fill:#164465;"/><path d="M585.835,563.208l6.946,1.929l0.193,17.268l-7.332,-0.965l0.193,-18.232Z" style="fill:#164465;"/></g></g><path d="M117.973,571.103l85.966,5.993l-1.461,45.212l-84.505,1.236l0,-52.441Z" style="fill:#10477a;"/><clipPath id="_clip77"><path d="M117.973,571.103l85.966,5.993l-1.461,45.212l-84.505,1.236l0,-52.441Z"/></clipPath><g clip-path="url(#_clip77)"><path d="M113.104,575.036l85.965,5.993l-0.562,44.013l-85.403,2.435l-0,-52.441Z" style="fill:#206bb1;"/><clipPath id="_clip78"><path d="M113.104,575.036l85.965,5.993l-0.562,44.013l-85.403,2.435l-0,-52.441Z"/></clipPath><g clip-path="url(#_clip78)"><g><path d="M107.485,587.397l99.45,3.559" style="fill:none;stroke:#74b7f1;stroke-width:2.4px;"/><path d="M142.92,566.159l-2.285,66" style="fill:none;stroke:#74b7f1;stroke-width:1.34px;"/><path d="M178.665,568.877l-2.53,62.774" style="fill:none;stroke:#74b7f1;stroke-width:1px;"/></g></g></g></g></g><g id="Sky"></g><g id="BackBuildings"></g><g id="FrontBuilding"></g><g id="BusStation"></g><g id="Bus"></g><g id="Hospital1" serif:id="Hospital"></g><g id="Layer7"></g></svg>