<?xml version="1.0" encoding="UTF-8" standalone="no"?><!DOCTYPE svg PUBLIC "-//W3C//DTD SVG 1.1//EN" "http://www.w3.org/Graphics/SVG/1.1/DTD/svg11.dtd"><svg width="100%" height="100%" viewBox="0 0 800 797" version="1.1" xmlns="http://www.w3.org/2000/svg" xmlns:xlink="http://www.w3.org/1999/xlink" xml:space="preserve" xmlns:serif="http://www.serif.com/" style="fill-rule:evenodd;clip-rule:evenodd;stroke-linejoin:round;stroke-miterlimit:2;"><g id="Layer3"></g><g id="Layer4"></g><g id="Layer6"></g><rect id="Artboard4" x="0" y="0" width="800" height="797" style="fill:none;"/><g id="Hospital"><g id="Ground"><g><g><ellipse cx="379.188" cy="667.653" rx="333.137" ry="47.096" style="fill:#964439;"/><ellipse cx="378.043" cy="663.672" rx="331.992" ry="45.287" style="fill:#f4935e;"/></g><g><ellipse cx="392.844" cy="651.593" rx="280.669" ry="38.315" style="fill:#964439;"/><ellipse cx="391.879" cy="648.355" rx="279.704" ry="36.843" style="fill:#fcc273;"/></g></g><g id="Layer5"><ellipse cx="393.036" cy="646.031" rx="268.707" ry="30.201" style="fill:#238700;"/><path d="M393.036,612.579c127.797,0 233.618,1.506 243.988,16.035c0.556,0.78 -0,11.496 -0,12.293c-0,13.532 -109.328,25.525 -243.988,25.525c-134.661,-0 -243.988,-12.693 -243.988,-25.525c-0,-1.537 -2.032,-10.823 -0,-12.293c18.642,-13.492 122.559,-16.035 243.988,-16.035Z" style="fill:#3ba217;"/><path d="M393.036,602.254c134.66,0 243.988,11.704 243.988,26.12c-0,11.347 -109.655,19.175 -244.316,19.175c-134.661,0 -243.66,-9.766 -243.66,-19.175c-0,-14.416 109.327,-26.12 243.988,-26.12Z" style="fill:url(#_Radial1);"/></g></g></g><g id="Sky"></g><g id="BackBuildings"></g><g id="FrontBuilding"></g><g id="BusStation"></g><g id="Bus"></g><g id="Hospital1" serif:id="Hospital"></g><g id="Layer7"></g><defs><radialGradient id="_Radial1" cx="0" cy="0" r="1" gradientUnits="userSpaceOnUse" gradientTransform="matrix(268.288,-0.630804,0.781665,25.9855,393.036,620.348)"><stop offset="0" style="stop-color:#57b728;stop-opacity:1"/><stop offset="0.74" style="stop-color:#54bd25;stop-opacity:1"/><stop offset="1" style="stop-color:#3ba217;stop-opacity:1"/></radialGradient></defs></svg>