<?xml version="1.0" encoding="UTF-8" standalone="no"?>
<!DOCTYPE svg PUBLIC "-//W3C//DTD SVG 1.1//EN" "http://www.w3.org/Graphics/SVG/1.1/DTD/svg11.dtd">
<svg width="100%" height="100%" viewBox="0 0 220 67" version="1.1" xmlns="http://www.w3.org/2000/svg" xmlns:xlink="http://www.w3.org/1999/xlink" xml:space="preserve" xmlns:serif="http://www.serif.com/" style="fill-rule:evenodd;clip-rule:evenodd;stroke-linejoin:round;stroke-miterlimit:2;">
    <g>
        <path d="M84.328,39.828l-7.523,0l-2.73,-6.723l-13.248,-0l-2.689,6.723l-7.501,0l13.375,-34.141l6.912,-0l13.404,34.141Zm-21.093,-13.154l8.496,-0l-4.251,-11.154l-4.245,11.154Z" style="fill:rgb(80,0,185);fill-rule:nonzero;"/>
        <path d="M93.614,39.828l-6.913,0l0,-23.867l6.813,-0l-0,1.656c1.518,-1.463 3.553,-2.268 5.663,-2.241c5.866,-0 9.718,3.797 9.718,10.566l-0,13.886l-6.912,0l0,-13.349c0,-2.529 -1.154,-4.673 -3.953,-4.673c-3.27,0 -4.399,2.439 -4.399,6.097l-0.025,11.937" style="fill:rgb(80,0,185);fill-rule:nonzero;"/>
        <path d="M136.41,30.525c-1.125,5.796 -5.519,9.837 -11.977,9.837c-7.227,0 -12.595,-5.311 -12.595,-12.471c0,-7.16 5.377,-12.515 12.595,-12.515c6.296,-0 10.691,3.902 11.574,9.545l-7.609,-0c-0.262,-0.898 -0.816,-1.683 -1.577,-2.23c-0.76,-0.546 -1.681,-0.823 -2.618,-0.787c-2.933,0 -5.274,2.483 -5.274,5.987c0,3.504 2.344,5.994 5.377,5.994c1.021,0.036 2.023,-0.278 2.841,-0.889c0.817,-0.612 1.4,-1.484 1.652,-2.471l7.621,-0" style="fill:rgb(80,0,185);fill-rule:nonzero;"/>
        <path d="M146.165,39.828l-6.91,0l0,-34.141l6.91,-0l0,11.627c1.565,-1.288 3.539,-1.98 5.568,-1.951c5.866,0 9.711,3.797 9.711,10.567l-0,13.886l-6.908,-0l-0,-13.337c-0,-2.529 -1.153,-4.673 -3.957,-4.673c-3.273,0 -4.4,2.439 -4.4,6.097l-0.014,11.925Z" style="fill:rgb(80,0,185);fill-rule:nonzero;"/>
        <path d="M177.096,15.376c7.223,-0 12.742,5.365 12.742,12.515c0,7.15 -5.519,12.471 -12.742,12.471c-7.222,0 -12.746,-5.311 -12.746,-12.471c0,-7.16 5.524,-12.515 12.746,-12.515Zm0,18.555c3.266,0 5.664,-2.533 5.664,-6.04c0,-3.507 -2.398,-6.038 -5.664,-6.038c-3.265,-0 -5.665,2.534 -5.665,6.038c0,3.504 2.395,6.04 5.665,6.04Z" style="fill:rgb(80,0,185);fill-rule:nonzero;"/>
        <path d="M208.673,24.143c-1.233,-1.154 -2.849,-1.812 -4.539,-1.849c-2.102,0 -4.446,1.149 -4.446,4.634l-0,12.907l-6.912,0l0,-23.874l6.815,-0l0,1.995c-0.047,-0 1.371,-2.339 4.785,-2.339c0.799,-0.036 1.595,0.099 2.337,0.397c0.741,0.297 1.41,0.75 1.96,1.327l0,6.802" style="fill:rgb(80,0,185);fill-rule:nonzero;"/>
        <path d="M212.55,37.38l0,-5.853l2.493,-0c0.461,-0.021 0.922,0.032 1.366,0.158c0.284,0.106 0.524,0.303 0.682,0.561c0.168,0.278 0.253,0.598 0.245,0.922c0.007,0.3 -0.067,0.596 -0.215,0.856c-0.05,0.082 -0.108,0.16 -0.171,0.232c-0.262,0.273 -0.605,0.455 -0.978,0.519c0.162,0.163 0.317,0.334 0.462,0.512c0.25,0.298 0.476,0.615 0.674,0.949c0.152,0.244 0.396,0.636 0.717,1.141l-1.416,0l-0.855,-1.273c-0.19,-0.299 -0.399,-0.586 -0.626,-0.858c-0.097,-0.109 -0.218,-0.192 -0.354,-0.244c-0.194,-0.052 -0.396,-0.075 -0.597,-0.066l-0.244,0l0,2.439l-1.183,0.005Zm1.185,-3.375l0.868,-0c0.356,0.017 0.713,-0.007 1.063,-0.071c0.135,-0.043 0.252,-0.129 0.333,-0.244c0.084,-0.131 0.126,-0.284 0.12,-0.439c0.011,-0.176 -0.045,-0.35 -0.157,-0.488c-0.117,-0.126 -0.276,-0.207 -0.447,-0.229c-0.096,-0.012 -0.384,-0.02 -0.863,-0.02l-0.924,0.001l0.007,1.49Z" style="fill:rgb(80,0,185);fill-rule:nonzero;"/>
        <path d="M214.752,39.684c-0.688,0.001 -1.37,-0.133 -2.006,-0.396c-0.636,-0.263 -1.213,-0.649 -1.699,-1.135c-0.237,-0.237 -0.452,-0.496 -0.641,-0.773c-0.681,-1.006 -0.99,-2.217 -0.873,-3.426c0.117,-1.208 0.652,-2.338 1.514,-3.195c0.236,-0.238 0.496,-0.452 0.775,-0.639c0.865,-0.586 1.887,-0.899 2.933,-0.899c1.045,0 2.067,0.313 2.933,0.899c0.278,0.187 0.538,0.401 0.774,0.639c0.479,0.476 0.861,1.04 1.125,1.661c0.34,0.801 0.473,1.675 0.388,2.542c-0.085,0.866 -0.387,1.697 -0.877,2.418c-0.189,0.277 -0.403,0.536 -0.64,0.773c-0.486,0.487 -1.063,0.873 -1.699,1.136c-0.636,0.263 -1.318,0.397 -2.007,0.395Zm0,-10.015c-0.949,-0 -1.876,0.28 -2.665,0.806c-0.79,0.526 -1.404,1.274 -1.768,2.149c-0.363,0.874 -0.458,1.837 -0.273,2.766c0.185,0.928 0.642,1.781 1.313,2.451c0.671,0.669 1.526,1.125 2.457,1.31c0.931,0.184 1.896,0.09 2.772,-0.273c0.877,-0.362 1.626,-0.975 2.154,-1.763c0.527,-0.787 0.808,-1.712 0.808,-2.659c0,-1.27 -0.506,-2.487 -1.406,-3.385c-0.9,-0.897 -2.12,-1.402 -3.392,-1.402Z" style="fill:rgb(80,0,185);fill-rule:nonzero;"/>
        <path d="M138.766,63.5l-1.484,0l0,-11.542l1.484,-0l0,4.958c0.23,-0.398 0.569,-0.721 0.978,-0.932c0.482,-0.26 1.025,-0.39 1.574,-0.375c1.119,-0 1.988,0.377 2.605,1.131c0.608,0.849 0.932,1.868 0.927,2.911c-0.006,1.043 -0.341,2.058 -0.958,2.9c-0.319,0.382 -0.721,0.685 -1.176,0.885c-0.455,0.201 -0.95,0.294 -1.447,0.271c-1.141,0 -1.972,-0.441 -2.493,-1.324l-0.01,1.117Zm3.911,-1.88c0.438,-0.57 0.659,-1.277 0.623,-1.995c0.039,-0.709 -0.18,-1.407 -0.616,-1.968c-0.201,-0.24 -0.455,-0.43 -0.741,-0.557c-0.286,-0.127 -0.598,-0.186 -0.911,-0.175c-0.312,-0.008 -0.622,0.053 -0.907,0.18c-0.285,0.126 -0.538,0.315 -0.741,0.552c-0.444,0.551 -0.671,1.245 -0.638,1.951c-0.033,0.717 0.193,1.422 0.638,1.985c0.199,0.244 0.45,0.439 0.736,0.57c0.285,0.132 0.597,0.196 0.912,0.188c0.313,0.013 0.624,-0.046 0.91,-0.173c0.287,-0.127 0.54,-0.318 0.74,-0.558l-0.005,-0Z" style="fill:rgb(80,0,185);fill-rule:nonzero;"/>
        <path d="M148.365,66.705l-1.648,-0.001l1.919,-4.05l-3.307,-6.828l1.725,-0l2.396,5.294l2.302,-5.294l1.613,-0l-5,10.879Z" style="fill:rgb(80,0,185);fill-rule:nonzero;"/>
        <path d="M166.171,54.762l-1.406,0.488c-0.087,-0.51 -0.34,-0.978 -0.718,-1.331c-0.454,-0.377 -1.022,-0.587 -1.612,-0.597c-0.59,-0.011 -1.166,0.18 -1.632,0.541c-0.198,0.162 -0.356,0.367 -0.464,0.598c-0.108,0.232 -0.162,0.485 -0.159,0.74c-0.011,0.386 0.122,0.761 0.374,1.054c0.286,0.307 0.664,0.514 1.078,0.59l1.694,0.366c0.827,0.143 1.588,0.542 2.175,1.141c0.509,0.553 0.783,1.281 0.765,2.032c0.002,0.448 -0.095,0.892 -0.282,1.299c-0.187,0.408 -0.461,0.77 -0.803,1.061c-0.725,0.659 -1.668,0.988 -2.828,0.988c-1.27,-0 -2.264,-0.333 -2.982,-0.998c-0.691,-0.611 -1.136,-1.451 -1.254,-2.365l1.503,-0.488c0.05,0.652 0.334,1.264 0.799,1.724c0.256,0.24 0.557,0.426 0.887,0.546c0.329,0.121 0.679,0.173 1.03,0.154c0.746,0 1.321,-0.17 1.725,-0.51c0.194,-0.154 0.349,-0.351 0.455,-0.575c0.105,-0.224 0.157,-0.47 0.151,-0.717c0.007,-0.411 -0.148,-0.808 -0.43,-1.107c-0.342,-0.342 -0.783,-0.568 -1.261,-0.646l-1.616,-0.352c-0.764,-0.139 -1.467,-0.511 -2.011,-1.065c-0.509,-0.55 -0.779,-1.279 -0.753,-2.027c0.003,-0.447 0.103,-0.888 0.292,-1.294c0.188,-0.405 0.462,-0.766 0.803,-1.057c0.715,-0.669 1.664,-1.032 2.645,-1.012c1.161,0 2.051,0.282 2.669,0.844c0.59,0.517 0.999,1.209 1.166,1.975Z" style="fill:rgb(80,0,185);fill-rule:nonzero;"/>
        <path d="M169.27,66.529l-1.486,-0l-0,-10.698l1.454,-0l-0,1.197c0.237,-0.417 0.586,-0.76 1.007,-0.99c0.48,-0.262 1.02,-0.393 1.567,-0.381c1.108,0 1.973,0.378 2.596,1.132c0.61,0.84 0.936,1.852 0.931,2.89c-0.006,1.038 -0.343,2.047 -0.963,2.88c-0.318,0.378 -0.72,0.678 -1.173,0.877c-0.453,0.199 -0.945,0.292 -1.44,0.271c-0.522,0.011 -1.038,-0.11 -1.501,-0.351c-0.404,-0.204 -0.746,-0.512 -0.992,-0.892l-0,4.065Zm4.539,-6.872c0.027,-0.692 -0.191,-1.372 -0.616,-1.919c-0.197,-0.247 -0.449,-0.444 -0.736,-0.576c-0.287,-0.131 -0.601,-0.194 -0.916,-0.183c-0.316,-0.009 -0.63,0.054 -0.917,0.186c-0.287,0.131 -0.54,0.327 -0.738,0.572c-0.434,0.544 -0.658,1.225 -0.631,1.92c-0.029,0.704 0.194,1.396 0.631,1.951c0.198,0.245 0.451,0.441 0.738,0.572c0.287,0.132 0.601,0.196 0.917,0.186c0.314,0.01 0.626,-0.054 0.912,-0.185c0.285,-0.132 0.536,-0.328 0.733,-0.573c0.432,-0.557 0.653,-1.248 0.623,-1.951Z" style="fill:rgb(80,0,185);fill-rule:nonzero;"/>
        <path d="M177.732,56.748c0.751,-0.741 1.764,-1.156 2.819,-1.156c1.056,-0 2.069,0.415 2.82,1.155c0.369,0.388 0.657,0.844 0.848,1.344c0.191,0.499 0.281,1.031 0.264,1.566c0.018,0.536 -0.07,1.07 -0.259,1.572c-0.19,0.502 -0.476,0.962 -0.844,1.354c-0.754,0.741 -1.77,1.156 -2.829,1.156c-1.058,0 -2.075,-0.415 -2.829,-1.156c-0.367,-0.392 -0.654,-0.852 -0.843,-1.354c-0.189,-0.502 -0.277,-1.036 -0.259,-1.572c-0.017,-0.535 0.073,-1.067 0.263,-1.566c0.191,-0.5 0.48,-0.956 0.849,-1.344Zm1.117,4.926c0.22,0.23 0.484,0.413 0.776,0.538c0.293,0.125 0.608,0.189 0.926,0.189c0.319,0 0.633,-0.064 0.926,-0.189c0.293,-0.125 0.557,-0.308 0.777,-0.538c0.461,-0.487 0.692,-1.16 0.694,-2.016c0,-0.849 -0.245,-1.517 -0.694,-2c-0.22,-0.23 -0.484,-0.412 -0.777,-0.537c-0.293,-0.125 -0.607,-0.19 -0.926,-0.19c-0.318,0 -0.633,0.065 -0.926,0.19c-0.292,0.125 -0.556,0.307 -0.776,0.537c-0.462,0.488 -0.694,1.151 -0.694,2c-0,0.848 0.232,1.534 0.694,2.016Z" style="fill:rgb(80,0,185);fill-rule:nonzero;"/>
        <path d="M188.333,53.407l0,2.421l1.662,0l0,1.356l-1.662,-0l0,3.987c-0.026,0.145 -0.015,0.294 0.03,0.434c0.045,0.141 0.124,0.268 0.229,0.371c0.105,0.103 0.234,0.18 0.375,0.223c0.142,0.042 0.291,0.05 0.436,0.023c0.199,0.003 0.398,-0.019 0.592,-0.063l-0,1.275c-0.33,0.107 -0.676,0.156 -1.022,0.144c-0.287,0.015 -0.573,-0.028 -0.843,-0.127c-0.269,-0.099 -0.515,-0.252 -0.724,-0.448c-0.2,-0.216 -0.353,-0.47 -0.452,-0.747c-0.099,-0.276 -0.14,-0.57 -0.122,-0.863l-0,-4.207l-1.467,0l-0,-1.355l0.416,-0.001c0.163,0.013 0.326,-0.01 0.479,-0.066c0.153,-0.056 0.292,-0.145 0.408,-0.26c0.204,-0.236 0.31,-0.54 0.296,-0.851l-0,-1.247l1.369,0Z" style="fill:rgb(80,0,185);fill-rule:nonzero;"/>
        <path d="M191.967,53.687c-0.101,-0.098 -0.18,-0.216 -0.234,-0.346c-0.053,-0.13 -0.079,-0.27 -0.076,-0.41c-0.003,-0.142 0.023,-0.283 0.077,-0.414c0.053,-0.132 0.132,-0.252 0.233,-0.352c0.098,-0.103 0.216,-0.184 0.347,-0.239c0.13,-0.055 0.271,-0.083 0.413,-0.08c0.143,-0.002 0.284,0.024 0.416,0.078c0.132,0.054 0.251,0.133 0.352,0.234c0.104,0.1 0.186,0.22 0.24,0.353c0.055,0.133 0.081,0.276 0.078,0.42c0.002,0.141 -0.025,0.281 -0.079,0.411c-0.055,0.131 -0.136,0.248 -0.239,0.345c-0.101,0.101 -0.22,0.18 -0.352,0.234c-0.132,0.053 -0.273,0.08 -0.416,0.078c-0.141,0.002 -0.281,-0.024 -0.412,-0.078c-0.131,-0.053 -0.249,-0.133 -0.348,-0.234Zm1.511,9.813l-1.486,0l-0,-7.67l1.486,0l0,7.67Z" style="fill:rgb(80,0,185);fill-rule:nonzero;"/>
        <path d="M199.901,57.186l-1.853,0l0,6.314l-1.549,0l0,-6.314l-1.423,0l0,-1.355l1.423,-0.001l0,-1.29c-0.02,-0.353 0.034,-0.707 0.157,-1.039c0.124,-0.332 0.315,-0.635 0.561,-0.89c0.239,-0.232 0.521,-0.414 0.832,-0.534c0.31,-0.121 0.642,-0.178 0.975,-0.168c0.457,0 0.756,0.054 0.894,0.161l0,1.336c-0.211,-0.071 -0.433,-0.103 -0.655,-0.095c-0.311,-0.006 -0.614,0.097 -0.855,0.293c-0.245,0.198 -0.36,0.536 -0.36,1.014l0,1.22l1.853,-0l0,1.348Z" style="fill:rgb(80,0,185);fill-rule:nonzero;"/>
        <path d="M203.672,66.705l-1.647,-0.001l1.919,-4.05l-3.307,-6.828l1.725,-0l2.396,5.294l2.302,-5.294l1.613,-0l-5.001,10.879Z" style="fill:rgb(80,0,185);fill-rule:nonzero;"/>
        <path d="M42.285,12.957c0,-0 -1.833,-0.869 -3.735,-0.305c-1.422,0.419 -2.982,1.497 -3.869,3.736c-1.711,4.294 -0.23,11.783 -0.809,11.783c-0.579,0 -2.403,-6.901 -4.842,-14.088c-2.439,-7.186 -4.549,-14.651 -8.357,-14.049c-3.378,0.532 -2.329,9.043 -1.007,17.015c1.198,7.225 2.584,13.99 1.792,13.99c-1.415,0.003 -6.059,-19.97 -10.818,-19.212c-4.759,0.759 1.371,22.765 0.083,22.807c-1.059,0.034 -3.654,-13.396 -7.506,-12.779c-2.919,0.468 -0.318,10.916 -0.198,13.83c0.029,0.731 0.256,2.102 -0.841,2.102l-2.178,-0l-0,2.031l3.566,0c0.733,-0.034 1.313,-0.314 1.606,-1.034c0.99,-2.438 -1.611,-12.798 -1.002,-12.873c0.418,-0.051 1.32,3.102 2.579,6.667c1.258,3.565 2.52,7.262 4.91,7.262c5.155,0 -0.103,-20.211 0.919,-20.211c0.54,-0 2.014,4.106 3.635,8.611c1.982,5.504 4.399,11.608 7.318,11.608c3.483,-0 2.348,-7.885 1.271,-15.439c-0.934,-6.538 -2.029,-12.682 -1.445,-12.682c1.315,0.001 6.279,28.111 12.241,28.111c2.987,-0 3.021,-5.877 3.021,-12.213c-0,-4.451 -0.372,-8.506 2.424,-9.481c1.33,-0.464 2.674,0.358 2.674,0.358l-1.432,-5.545Z" style="fill:rgb(80,0,185);fill-rule:nonzero;"/>
    </g>
</svg>
