<?xml version="1.0" encoding="UTF-8" standalone="no"?><!DOCTYPE svg PUBLIC "-//W3C//DTD SVG 1.1//EN" "http://www.w3.org/Graphics/SVG/1.1/DTD/svg11.dtd"><svg width="100%" height="100%" viewBox="0 0 800 1151" version="1.1" xmlns="http://www.w3.org/2000/svg" xmlns:xlink="http://www.w3.org/1999/xlink" xml:space="preserve" xmlns:serif="http://www.serif.com/" style="fill-rule:evenodd;clip-rule:evenodd;stroke-linejoin:round;stroke-miterlimit:2;"><g id="Layer3"></g><g id="Layer4"></g><rect id="Artboard3" x="0" y="0" width="800" height="1150.4" style="fill:none;"/><rect x="0" y="0" width="800" height="1150.39" style="fill:none;"/><clipPath id="_clip1"><rect x="0" y="0" width="800" height="1150.39"/></clipPath><g clip-path="url(#_clip1)"><g id="Buildings_4"><g id="Right_4"><path d="M747.363,839.839l62.559,310.224l-0,-522.294l-62.559,-182.866l-0,394.936Z" style="fill:#ecc9b2;"/><path d="M756.065,882.436l34.756,172.348l-0,-290.166l-34.756,-101.594l0,219.412Z" style="fill:#8b4a1e;"/><clipPath id="_clip2"><path d="M756.065,882.436l34.756,172.348l-0,-290.166l-34.756,-101.594l0,219.412Z"/></clipPath><g clip-path="url(#_clip2)"><rect x="749.712" y="645.204" width="15.177" height="238.4" style="fill:#a95d2a;"/><path d="M763.291,877.652l50.318,233.03l-14.835,3.203l-50.318,-233.03l14.835,-3.203Z" style="fill:#a95d2a;"/></g><path d="M973.879,628.451l-163.957,-0l-62.559,-183.548l166.097,0l60.419,183.548Z" style="fill:#e1b99f;"/></g><g id="Left_4"><path d="M49.713,839.839l-62.559,310.224l-0,-522.294l62.559,-182.866l-0,394.936Z" style="fill:#ecc9b2;"/><path d="M44.995,864.624l-34.646,171.81l-0,-289.26l34.646,-101.276l0,218.726Z" style="fill:#8b4a1e;"/><clipPath id="_clip3"><path d="M44.995,864.624l-34.646,171.81l-0,-289.26l34.646,-101.276l0,218.726Z"/></clipPath><g clip-path="url(#_clip3)"><rect x="36.7" y="640.549" width="15.177" height="223.403" style="fill:#a95d2a;"/><path d="M59.192,828.956l-47.145,218.371l-14.835,-3.203l47.145,-218.371l14.835,3.203Z" style="fill:#a95d2a;"/></g><path d="M40.869,539.765l0,63.252l-48.689,133.239l0.196,-68.011l48.493,-128.48Z" style="fill:#b76730;"/><path d="M39.217,548.44l0,53.88l-45.384,125.261l0.166,-57.934l45.218,-121.207Z" style="fill:#ce7d45;"/><path d="M31.016,568.622l0,60.431l-2.158,4.12c0.271,-26.787 0.148,-41.949 0,-59.528l2.158,-5.023Z" style="fill:#b76730;"/><path d="M40.869,539.765l0.774,-0.366l0,63.144l-0.774,0.459l0,-63.237Z" style="fill:#e2ac88;"/><path d="M40.869,603.002l0.774,-0.366l-48.787,133.301l-0.676,0.319l48.689,-133.254Z" style="fill:#e4b190;"/><path d="M-176.804,628.451l163.958,-0l62.559,-183.548l-166.098,0l-60.419,183.548Z" style="fill:#e1b99f;"/></g></g></g><g id="Layer6"></g><g id="Sky"></g><g id="BackBuildings"></g><g id="FrontBuilding"></g><g id="BusStation"></g><g id="Bus"></g><g id="Hospital"></g><g id="Layer7"></g></svg>