<?xml version="1.0" encoding="UTF-8" standalone="no"?><!DOCTYPE svg PUBLIC "-//W3C//DTD SVG 1.1//EN" "http://www.w3.org/Graphics/SVG/1.1/DTD/svg11.dtd"><svg width="100%" height="100%" viewBox="0 0 800 1151" version="1.1" xmlns="http://www.w3.org/2000/svg" xmlns:xlink="http://www.w3.org/1999/xlink" xml:space="preserve" xmlns:serif="http://www.serif.com/" style="fill-rule:evenodd;clip-rule:evenodd;stroke-linejoin:round;stroke-miterlimit:2;"><g id="Layer3"></g><g id="Layer4"></g><rect id="Artboard3" x="0" y="0" width="800" height="1150.4" style="fill:none;"/><rect x="0" y="0" width="800" height="1150.39" style="fill:none;"/><clipPath id="_clip1"><rect x="0" y="0" width="800" height="1150.39"/></clipPath><g clip-path="url(#_clip1)"><g id="Buildings_1"><g id="Right_1"><rect x="617.861" y="8.743" width="203.576" height="168.114" style="fill:#e7b99c;"/><path d="M617.861,176.857l22.926,114.626l-0,-265.537l-22.926,-17.203l0,168.114Z" style="fill:#ecc9b2;"/><path d="M629.872,236.319l5.593,35.128l0,-81.375l-5.593,-5.272l-0,51.519Z" style="fill:#a25828;"/><path d="M631.588,247.101l0,-59.07l-1.716,-3.231l-0,51.519l1.716,10.782Z" style="fill:#dd9d74;"/><path d="M640.787,25.946l203.576,1.173l0,264.364l-203.576,0l-0,-265.537Z" style="fill:#dfa27b;"/></g><g id="Left1"><g><path d="M186.218,3.487l-210.581,5.256l0,27.457l203.577,-0l7.004,-32.713Z" style="fill:#e7b99c;"/><path d="M186.218,176.799l-29.929,109.38l-0,-260.233l31.044,-22.459l-1.115,173.312Z" style="fill:#ecc9b2;"/><path d="M165.487,229.689l-3.877,14.126l0,-53.743l5.594,-5.272l-1.717,44.889Z" style="fill:#a25828;"/><path d="M165.487,229.557l-0,-41.526l1.717,-3.231l-0,44.889l-1.717,-0.132Z" style="fill:#dd9d74;"/><path d="M156.289,25.946l-203.577,1.173l0,264.364l203.577,0l-0,-265.537Z" style="fill:#dfa27b;"/></g><path d="M162.761,49.831l5.983,-4.809l-0.09,22.867l-5.99,3.362l0.097,-21.42Z" style="fill:#a95d2a;"/><path d="M163.387,85.488l5.982,-4.808l-0.089,22.867l-5.99,3.362l0.097,-21.421Z" style="fill:#a95d2a;"/><path d="M175.65,39.577l7.819,-6.551l0.269,26.819l-7.972,4.043l-0.116,-24.311Z" style="fill:#a95d2a;"/><path d="M176.276,75.234l7.819,-6.55l0.269,26.819l-7.972,4.043l-0.116,-24.312Z" style="fill:#a95d2a;"/></g></g></g><g id="Layer6"></g><g id="Sky"></g><g id="BackBuildings"></g><g id="FrontBuilding"></g><g id="BusStation"></g><g id="Bus"></g><g id="Hospital"></g><g id="Layer7"></g></svg>