<?xml version="1.0" encoding="UTF-8" standalone="no"?><!DOCTYPE svg PUBLIC "-//W3C//DTD SVG 1.1//EN" "http://www.w3.org/Graphics/SVG/1.1/DTD/svg11.dtd"><svg width="100%" height="100%" viewBox="0 0 800 1151" version="1.1" xmlns="http://www.w3.org/2000/svg" xmlns:xlink="http://www.w3.org/1999/xlink" xml:space="preserve" xmlns:serif="http://www.serif.com/" style="fill-rule:evenodd;clip-rule:evenodd;stroke-linejoin:round;stroke-miterlimit:2;"><g id="Layer3"></g><g id="Layer4"></g><rect id="Artboard3" x="0" y="0" width="800" height="1150.4" style="fill:none;"/><rect x="0" y="0" width="800" height="1150.39" style="fill:none;"/><clipPath id="_clip1"><rect x="0" y="0" width="800" height="1150.39"/></clipPath><g clip-path="url(#_clip1)"><g id="Street"><path d="M597.274,66.056l-335.038,-0l-212.648,1084.34l760.334,-0l-212.648,-1084.34Z" style="fill:url(#_Linear2);"/><path d="M521.095,95.031l206.923,1055.14l72.191,-0.112l3.587,-31.574l-216.068,-1049.69l-62.233,-2.739l-4.4,28.975Z" style="fill:url(#_Linear3);"/><path d="M525.495,66.056l207.028,1055.68l151.25,-2.577l-206.523,-1053.1l-151.755,-0Z" style="fill:#b76228;"/><path d="M525.495,66.056l207.028,1055.68l151.25,-2.577l-206.523,-1053.1l-151.755,-0Z" style="fill:url(#_Linear4);"/><path d="M729.158,1150.06l3.922,-28.326l70.716,-2.783l-2.739,31.109l-71.899,-0Z" style="fill:#9f5523;"/><path d="M275.98,95.031l-206.923,1055.14l-72.191,-0.112l-3.587,-31.574l216.068,-1049.69l62.233,-2.739l4.4,28.975Z" style="fill:url(#_Linear5);"/><path d="M271.58,66.056l-207.028,1055.68l-151.25,-2.577l206.523,-1053.1l151.755,-0Z" style="fill:#b76228;"/><path d="M271.58,66.056l-207.028,1055.68l-151.25,-2.577l206.523,-1053.1l151.755,-0Z" style="fill:url(#_Linear6);"/><path d="M67.917,1150.06l-3.921,-28.326l-70.717,-2.783l2.739,31.109l71.899,-0Z" style="fill:#9f5523;"/></g></g><g id="Layer6"></g><g id="Sky"></g><g id="BackBuildings"></g><g id="FrontBuilding"></g><g id="BusStation"></g><g id="Bus"></g><g id="Hospital"></g><g id="Layer7"></g><defs><linearGradient id="_Linear2" x1="0" y1="0" x2="1" y2="0" gradientUnits="userSpaceOnUse" gradientTransform="matrix(6.30396e-14,-1029.51,1029.51,6.30396e-14,429.755,1150.39)"><stop offset="0" style="stop-color:#e09d70;stop-opacity:1"/><stop offset="1" style="stop-color:#924e20;stop-opacity:1"/></linearGradient><linearGradient id="_Linear3" x1="0" y1="0" x2="1" y2="0" gradientUnits="userSpaceOnUse" gradientTransform="matrix(86.9143,1068.45,-1068.45,86.9143,473.285,66.0558)"><stop offset="0" style="stop-color:#b66128;stop-opacity:1"/><stop offset="1" style="stop-color:#ee8c49;stop-opacity:1"/></linearGradient><linearGradient id="_Linear4" x1="0" y1="0" x2="1" y2="0" gradientUnits="userSpaceOnUse" gradientTransform="matrix(233.582,1055.68,-1055.68,233.582,553.55,66.0558)"><stop offset="0" style="stop-color:#a45824;stop-opacity:1"/><stop offset="1" style="stop-color:#f8b486;stop-opacity:1"/></linearGradient><linearGradient id="_Linear5" x1="0" y1="0" x2="1" y2="0" gradientUnits="userSpaceOnUse" gradientTransform="matrix(-86.9143,1068.45,1068.45,86.9143,323.791,66.0558)"><stop offset="0" style="stop-color:#b66128;stop-opacity:1"/><stop offset="1" style="stop-color:#ee8c49;stop-opacity:1"/></linearGradient><linearGradient id="_Linear6" x1="0" y1="0" x2="1" y2="0" gradientUnits="userSpaceOnUse" gradientTransform="matrix(-233.582,1055.68,1055.68,233.582,243.525,66.0558)"><stop offset="0" style="stop-color:#a45824;stop-opacity:1"/><stop offset="1" style="stop-color:#f8b486;stop-opacity:1"/></linearGradient></defs></svg>