<?xml version="1.0" encoding="UTF-8" standalone="no"?><!DOCTYPE svg PUBLIC "-//W3C//DTD SVG 1.1//EN" "http://www.w3.org/Graphics/SVG/1.1/DTD/svg11.dtd"><svg width="100%" height="100%" viewBox="0 0 800 620" version="1.1" xmlns="http://www.w3.org/2000/svg" xmlns:xlink="http://www.w3.org/1999/xlink" xml:space="preserve" xmlns:serif="http://www.serif.com/" style="fill-rule:evenodd;clip-rule:evenodd;stroke-linejoin:round;stroke-miterlimit:2;"><g id="Layer3"><rect x="0" y="0" width="800" height="76.541" style="fill:#924e20;"/><rect x="0" y="543.449" width="800" height="76.541" style="fill:#924e20;"/><rect x="0" y="76.541" width="800" height="466.908" style="fill:#a4826b;"/><rect x="0" y="76.541" width="800" height="466.908" style="fill:#a4826b;"/><path d="M800,38.271l-800,-0l0,32.076c0,23.296 9.255,45.639 25.728,62.112c16.473,16.473 38.816,25.728 62.112,25.728c207.78,-0 712.16,-0 712.16,-0l0,-119.916Z" style="fill:#924e20;"/><g><rect x="142.489" y="189.11" width="160.114" height="17.18" style="fill:#eae2dd;"/><rect x="142.489" y="230.341" width="160.114" height="17.18" style="fill:#eae2dd;"/><rect x="142.489" y="271.572" width="160.114" height="17.18" style="fill:#eae2dd;"/><rect x="142.489" y="312.803" width="160.114" height="17.18" style="fill:#eae2dd;"/><rect x="142.489" y="354.034" width="160.114" height="17.18" style="fill:#eae2dd;"/><rect x="142.489" y="395.266" width="160.114" height="17.18" style="fill:#eae2dd;"/><rect x="142.489" y="436.497" width="160.114" height="17.18" style="fill:#eae2dd;"/><rect x="142.489" y="477.728" width="160.114" height="17.18" style="fill:#eae2dd;"/><rect x="142.489" y="518.959" width="160.114" height="17.18" style="fill:#eae2dd;"/></g><g><path d="M435.73,44.541l0,167.545l11.477,-0l0,-178.397l-178.397,-0l0,10.307l166.92,0.545Z" style="fill:#f6e6db;"/><path d="M409.553,39.212c-0,-13.318 -10.813,-24.131 -24.131,-24.131l-99.785,0c-13.318,0 -24.131,10.813 -24.131,24.131c0,13.318 10.813,24.131 24.131,24.131l99.785,0c13.318,0 24.131,-10.813 24.131,-24.131Z" style="fill:#eae2dd;"/><circle cx="335.53" cy="39.212" r="19.039" style="fill:#eef4b6;"/><circle cx="289.428" cy="39.212" r="19.039" style="fill:#6267d9;"/><circle cx="380.893" cy="39.212" r="19.039" style="fill:#e56f6f;"/></g></g></svg>