<?xml version="1.0" encoding="UTF-8" standalone="no"?><!DOCTYPE svg PUBLIC "-//W3C//DTD SVG 1.1//EN" "http://www.w3.org/Graphics/SVG/1.1/DTD/svg11.dtd"><svg width="100%" height="100%" viewBox="0 0 800 797" version="1.1" xmlns="http://www.w3.org/2000/svg" xmlns:xlink="http://www.w3.org/1999/xlink" xml:space="preserve" xmlns:serif="http://www.serif.com/" style="fill-rule:evenodd;clip-rule:evenodd;stroke-linecap:round;stroke-linejoin:round;stroke-miterlimit:1.5;"><g id="Layer3"></g><g id="Layer4"></g><g id="Layer6"></g><rect id="Artboard4" x="0" y="0" width="800" height="797" style="fill:none;"/><g id="Hospital"><g id="Trees"><ellipse cx="521.22" cy="549.59" rx="21.95" ry="23.83" style="fill:#266330;"/><ellipse cx="537.08" cy="571.201" rx="17.781" ry="18.488" style="fill:#226c2e;"/><ellipse cx="410.659" cy="579.408" rx="11.606" ry="12.134" style="fill:#128e27;"/><ellipse cx="425.214" cy="560.774" rx="19.896" ry="20.047" style="fill:#39af4d;"/><ellipse cx="363.664" cy="534.78" rx="19.501" ry="21.291" style="fill:#128e27;"/><ellipse cx="348.12" cy="552.396" rx="14.131" ry="13.472" style="fill:#53b964;"/><ellipse cx="360.272" cy="568.506" rx="23.081" ry="21.479" style="fill:#1f8931;"/><ellipse cx="376.664" cy="567.564" rx="14.414" ry="17.146" style="fill:#209333;"/><ellipse cx="224.688" cy="535.872" rx="32.501" ry="56.524" style="fill:#1f8931;"/><ellipse cx="202.789" cy="541.727" rx="23.198" ry="20.961" style="fill:#1f8931;"/><ellipse cx="234.23" cy="537.016" rx="15.073" ry="12.718" style="fill:#1e5928;"/><ellipse cx="203.496" cy="502.16" rx="20.137" ry="18.841" style="fill:#53b964;"/><ellipse cx="303.59" cy="576.465" rx="13.307" ry="17.075" style="fill:#266330;"/><ellipse cx="166.71" cy="586.881" rx="15.902" ry="14.018" style="fill:#266330;"/><ellipse cx="145.834" cy="577.912" rx="15.977" ry="18.163" style="fill:#53b964;"/><ellipse cx="162.942" cy="566.758" rx="19.218" ry="18.917" style="fill:#28b13f;"/><ellipse cx="236.586" cy="508.99" rx="16.251" ry="18.37" style="fill:#39af4d;"/><ellipse cx="566.713" cy="465.532" rx="47.425" ry="51.703" style="fill:#108b25;"/><ellipse cx="553.787" cy="525.193" rx="30.36" ry="29.67" style="fill:#5ab86a;"/><g><path d="M570.943,454.622l-1.766,196.951" style="fill:none;stroke:#5e0000;stroke-width:8.76px;"/><path d="M588.901,465.22l-18.394,37.992" style="fill:none;stroke:#5e0000;stroke-width:8.76px;"/><path d="M549.746,464.043l20.761,39.169" style="fill:none;stroke:#5e0000;stroke-width:8.76px;"/><path d="M581.541,546.473l-10.304,22.963" style="fill:none;stroke:#5e0000;stroke-width:8.76px;"/><path d="M521.485,543.529l0.294,95.679" style="fill:none;stroke:#5e0000;stroke-width:3.46px;"/><path d="M512.653,556.483l8.923,16.779" style="fill:none;stroke:#5e0000;stroke-width:3.46px;"/><path d="M535.321,563.843c0,-0 -14.425,14.131 -14.131,19.724" style="fill:none;stroke:#5e0000;stroke-width:3.46px;"/><path d="M536.499,573.263c-0,0 -10.178,-1.066 -10.424,0.896" style="fill:none;stroke:#5e0000;stroke-width:3.46px;"/><path d="M419.399,573.338l-0.302,58.484" style="fill:none;stroke:#5e0000;stroke-width:3.46px;"/><path d="M413.671,579.669c-0,-0 5.105,6.328 5.642,10.248" style="fill:none;stroke:#5e0000;stroke-width:3.46px;"/><path d="M363.161,544.412l-1.471,90.674" style="fill:none;stroke:#5e0000;stroke-width:3.46px;"/><path d="M370.4,570.634c0,-0 -7.755,11.947 -7.917,15.559" style="fill:none;stroke:#5e0000;stroke-width:3.46px;"/><path d="M355.568,575.095c0,0 6.633,11.576 6.753,14.35" style="fill:none;stroke:#5e0000;stroke-width:3.46px;"/><path d="M358.221,558.575c0,0 4.221,4.341 4.583,6.994" style="fill:none;stroke:#5e0000;stroke-width:3.46px;"/><path d="M368.712,556.405c0,-0 -5.547,2.291 -5.788,5.305" style="fill:none;stroke:#5e0000;stroke-width:3.46px;"/><path d="M289.448,557.624l0.471,67.358" style="fill:none;stroke:#5e0000;stroke-width:3.46px;"/><path d="M281.741,573.286c0,-0 8.779,10.9 8.103,15.627c-0.675,4.727 7.911,-13.891 7.911,-13.891" style="fill:none;stroke:#5e0000;stroke-width:1.34px;"/><path d="M221.116,493.654l3.769,141.546" style="fill:none;stroke:#5e0000;stroke-width:3.99px;"/><path d="M209.576,507.314l12.356,16.961" style="fill:none;stroke:#5e0000;stroke-width:3.99px;"/><path d="M232.892,514.851l-11.305,22.138" style="fill:none;stroke:#5e0000;stroke-width:3.99px;"/><path d="M206.514,524.743l15.78,43.099" style="fill:none;stroke:#5e0000;stroke-width:3.99px;"/><path d="M204.395,540.522l11.68,10.335" style="fill:none;stroke:#5e0000;stroke-width:3.99px;"/><path d="M239.016,536.047l-16.251,30.146" style="fill:none;stroke:#5e0000;stroke-width:3.99px;"/><path d="M239.251,552.769l-13.125,7.19" style="fill:none;stroke:#5e0000;stroke-width:3.99px;"/><path d="M160.548,571.827l-0.706,57.937" style="fill:none;stroke:#5e0000;stroke-width:3.99px;"/><path d="M154.189,584.31l6.118,7.301" style="fill:none;stroke:#5e0000;stroke-width:3.99px;"/><path d="M165.965,584.781l-6.594,11.069" style="fill:none;stroke:#5e0000;stroke-width:3.99px;"/></g><ellipse cx="239.765" cy="554.68" rx="19.666" ry="16.015" style="fill:#1f8931;"/><ellipse cx="511.997" cy="572.026" rx="16.486" ry="16.015" style="fill:#1e5928;"/><circle cx="289.577" cy="557.977" r="16.015" style="fill:#28b13f;"/><ellipse cx="588.332" cy="535.911" rx="23.506" ry="29.44" style="fill:#39af4d;"/><ellipse cx="375.157" cy="551.172" rx="12.341" ry="11.87" style="fill:#28b13f;"/><ellipse cx="198.667" cy="523.827" rx="21.196" ry="17.193" style="fill:#28b13f;"/><ellipse cx="273.444" cy="571.048" rx="15.662" ry="15.426" style="fill:#226c2e;"/><ellipse cx="220.924" cy="486.145" rx="22.021" ry="21.903" style="fill:#226c2e;"/></g></g><g id="Sky"></g><g id="BackBuildings"></g><g id="FrontBuilding"></g><g id="BusStation"></g><g id="Bus"></g><g id="Hospital1" serif:id="Hospital"></g><g id="Layer7"></g></svg>