<?xml version="1.0" encoding="UTF-8" standalone="no"?><!DOCTYPE svg PUBLIC "-//W3C//DTD SVG 1.1//EN" "http://www.w3.org/Graphics/SVG/1.1/DTD/svg11.dtd"><svg width="100%" height="100%" viewBox="0 0 800 797" version="1.1" xmlns="http://www.w3.org/2000/svg" xmlns:xlink="http://www.w3.org/1999/xlink" xml:space="preserve" xmlns:serif="http://www.serif.com/" style="fill-rule:evenodd;clip-rule:evenodd;stroke-linejoin:round;stroke-miterlimit:2;"><g id="Layer3"></g><g id="Layer4"></g><g id="Layer6"></g><rect id="Artboard4" x="0" y="0" width="800" height="797" style="fill:none;"/><clipPath id="_clip1"><rect x="0" y="0" width="800" height="797"/></clipPath><g clip-path="url(#_clip1)"><rect x="0" y="0.012" width="800" height="796.988" style="fill:url(#_Linear2);"/><g id="Hospital"><rect x="-0.522" y="610.839" width="808" height="186.161" style="fill:url(#_Linear3);"/><g id="BackBuilding"><path d="M669.906,526.824l-39.558,2.532l-1.582,34.811l43.989,4.114l-2.849,-41.457Z" style="fill:#ffdb9f;"/><path d="M600.804,458.395l35.703,4.351l-2.374,85.842l-32.996,-0l-0.333,-90.193Z" style="fill:#e2926d;"/><path d="M614.208,541.065l55.698,12.975l-0.316,71.522l-50.951,10.443l-4.431,-94.94Z" style="fill:#b98c7f;"/><path d="M692.059,540.116l49.909,-4.867l2.308,86.515l-43.672,-3.481l-8.545,-78.167Z" style="fill:#ffbe9f;"/><path d="M771.826,564.318l28.785,-3.211l1.331,57.066l-25.188,-2.296l-4.928,-51.559Z" style="fill:#ffdb9f;"/><path d="M668.957,526.824l39.875,16.456l2.215,81.649l-41.774,1.582l-0.316,-99.687Z" style="fill:#e2926d;"/><path d="M741.744,534.736l21.52,13.291l-0,67.724l-21.203,2.848l-0.317,-83.863Z" style="fill:#f9956d;"/><path d="M800.482,560.769l12.412,8.767l-0,44.671l-12.229,1.879l-0.183,-55.317Z" style="fill:#e2926d;"/><path d="M637.66,574.228l16.398,4.761l-0.736,50.963l-15.273,3.644l-0.389,-59.368Z" style="fill:#2c678f;"/><rect x="757.493" y="558.007" width="40.73" height="59.376" style="fill:#e1754d;"/><path d="M679.242,548.59l0.529,15.208l18.249,5.686l-0.132,-14.282l-18.646,-6.612Z" style="fill:#2c678f;"/><path d="M785.347,566.707l-27.892,-1.058l0.597,52.368l28.041,0.661l-0.746,-51.971" style="fill:#fabe7c;"/><path d="M706.748,558.112l26.58,-1.191l0.265,18.646l-28.432,-0.793l1.587,-16.662Z" style="fill:#1f678f;"/><path d="M762.95,578.344l-18.381,-5.289l-39.672,-0l-1.455,48.268l36.234,0.264l21.952,-4.099l1.322,-39.144Z" style="fill:#ffd68c;"/><rect x="768.24" y="576.758" width="4.364" height="8.331" style="fill:#0764b4;"/><rect x="767.711" y="600.561" width="4.099" height="9.257" style="fill:#0764b4;"/><rect x="715.454" y="591.227" width="11.571" height="12.398" style="fill:#1f678f;"/><path d="M24.153,519.967l-24.47,10.266l-0,86.544l24.47,1.446l-0,-98.256Z" style="fill:#e2926d;"/><path d="M127.375,533.191l-103.222,-13.224l-0,98.256l103.222,-2.522l-0,-82.51Z" style="fill:#ffdb9f;"/><rect x="103.345" y="510.15" width="243.969" height="100.689" style="fill:#f9956d;"/><rect x="208.155" y="461.033" width="359.348" height="149.806" style="fill:#f9956d;"/><rect x="-12.894" y="545.593" width="67.926" height="75.748" style="fill:#e1ae9b;"/><rect x="-2.312" y="565.587" width="30.076" height="12.398" style="fill:#1f678f;"/><rect x="547.461" y="458.395" width="53.344" height="88.805" style="fill:#e2926d;"/><rect x="429.094" y="525.131" width="189.561" height="94.94" style="fill:#b98c7f;"/></g><g id="Ground"><g><g><ellipse cx="379.188" cy="667.653" rx="333.137" ry="47.096" style="fill:#964439;"/><ellipse cx="378.043" cy="663.672" rx="331.992" ry="45.287" style="fill:#f4935e;"/></g><g><ellipse cx="392.844" cy="651.593" rx="280.669" ry="38.315" style="fill:#964439;"/><ellipse cx="391.879" cy="648.355" rx="279.704" ry="36.843" style="fill:#fcc273;"/></g></g><g id="Layer5"><ellipse cx="393.036" cy="646.031" rx="268.707" ry="30.201" style="fill:#238700;"/><path d="M393.036,612.579c127.797,0 233.618,1.506 243.988,16.035c0.556,0.78 -0,11.496 -0,12.293c-0,13.532 -109.328,25.525 -243.988,25.525c-134.661,-0 -243.988,-12.693 -243.988,-25.525c-0,-1.537 -2.032,-10.823 -0,-12.293c18.642,-13.492 122.559,-16.035 243.988,-16.035Z" style="fill:#3ba217;"/><path d="M393.036,602.254c134.66,0 243.988,11.704 243.988,26.12c-0,11.347 -109.655,19.175 -244.316,19.175c-134.661,0 -243.66,-9.766 -243.66,-19.175c-0,-14.416 109.327,-26.12 243.988,-26.12Z" style="fill:url(#_Radial4);"/></g></g></g></g><g id="Sky"></g><g id="BackBuildings"></g><g id="FrontBuilding"></g><g id="BusStation"></g><g id="Bus"></g><g id="Hospital1" serif:id="Hospital"></g><g id="Layer7"></g><defs><linearGradient id="_Linear2" x1="0" y1="0" x2="1" y2="0" gradientUnits="userSpaceOnUse" gradientTransform="matrix(4.83983e-14,642.757,-968.309,4.82161e-14,363.545,4.8793)"><stop offset="0" style="stop-color:#df9c6f;stop-opacity:1"/><stop offset="0.2" style="stop-color:#ff9f53;stop-opacity:1"/><stop offset="0.58" style="stop-color:#ffaa46;stop-opacity:1"/><stop offset="0.72" style="stop-color:#ffc32a;stop-opacity:1"/><stop offset="0.84" style="stop-color:#ffdc0f;stop-opacity:1"/><stop offset="1" style="stop-color:#ffbc00;stop-opacity:1"/><stop offset="1" style="stop-color:#6e9697;stop-opacity:1"/></linearGradient><linearGradient id="_Linear3" x1="0" y1="0" x2="1" y2="0" gradientUnits="userSpaceOnUse" gradientTransform="matrix(5.59633,203.408,-203.408,5.59633,388.847,625.381)"><stop offset="0" style="stop-color:#e1754d;stop-opacity:1"/><stop offset="1" style="stop-color:#bb3504;stop-opacity:1"/></linearGradient><radialGradient id="_Radial4" cx="0" cy="0" r="1" gradientUnits="userSpaceOnUse" gradientTransform="matrix(268.288,-0.630804,0.781665,25.9855,393.036,620.348)"><stop offset="0" style="stop-color:#57b728;stop-opacity:1"/><stop offset="0.74" style="stop-color:#54bd25;stop-opacity:1"/><stop offset="1" style="stop-color:#3ba217;stop-opacity:1"/></radialGradient></defs></svg>