<?xml version="1.0" encoding="UTF-8" standalone="no"?><!DOCTYPE svg PUBLIC "-//W3C//DTD SVG 1.1//EN" "http://www.w3.org/Graphics/SVG/1.1/DTD/svg11.dtd"><svg width="100%" height="100%" viewBox="0 0 789 1586" version="1.1" xmlns="http://www.w3.org/2000/svg" xmlns:xlink="http://www.w3.org/1999/xlink" xml:space="preserve" xmlns:serif="http://www.serif.com/" style="fill-rule:evenodd;clip-rule:evenodd;stroke-linejoin:round;stroke-miterlimit:2;"><rect id="Artboard1" x="0" y="0" width="788.889" height="1585.07" style="fill:none;"/><clipPath id="_clip1"><rect id="Artboard11" serif:id="Artboard1" x="0" y="0" width="788.889" height="1585.07"/></clipPath><g clip-path="url(#_clip1)"><path d="M-100.781,375.39c-0,-11.461 24.733,-40.584 34.343,-50.194c10.784,-10.784 18.668,-28.487 33.022,-35.664c27.372,-13.686 80.132,-35.886 121.522,-30.38c56.263,7.485 115.836,65.161 125.484,75.29c21.995,23.096 71.925,47.835 118.88,38.306c20.077,-4.075 47.933,-24.911 54.156,-29.059c30.527,-20.352 53.796,-49.634 87.179,-60.761c51.155,-17.052 128.852,55.626 169.073,54.156c136.599,-4.99 183.069,-92.068 272.103,-47.552c11.933,5.967 -51.775,351.766 -51.775,351.766l-930.722,33.594l-33.265,-299.502Z" style="fill:#0492c1;"/><path d="M-26.604,924.629c0,0 -141.088,-462.889 -127.814,-480.587c41.572,-55.43 105.397,-75.29 171.715,-75.29c71.819,-0 144.685,42.429 203.417,80.574c36.698,23.835 90.216,33.969 132.088,40.947c41.118,6.853 95.06,-4.111 133.41,-18.492c27.107,-10.165 54.788,-18.895 81.895,-29.06c71.996,-26.998 148.122,-68.282 228.513,-56.798c103.419,14.774 61.034,561.71 61.034,561.71l-884.258,-23.004Z" style="fill:#a1d86b;"/><path d="M919.443,664.272c-28.712,7.178 -64.994,-0.301 -90.811,-13.209c-14.156,-7.079 -26.532,-19.852 -41.277,-24.767c-14.212,-4.737 -25.296,-21.641 -39.627,-26.418c-13.458,-4.486 -22.971,-23.617 -36.324,-28.068c-17.678,-5.893 -31.776,-20.499 -49.534,-26.418c-13.125,-4.375 -28.922,-7.031 -41.277,-13.209c-9.554,-4.777 -24.431,1.763 -34.673,-1.651c-8.087,-2.696 -23.92,-3.726 -31.372,-0c-7.345,3.672 -20.192,-0.974 -28.068,1.651c-18.488,6.162 -36.224,13.726 -54.487,19.813c-12.517,4.173 -32.722,17.862 -41.278,26.418c-4.852,4.853 -17.017,10.16 -23.115,13.209c-29.33,14.665 -54.261,39.514 -84.207,54.486c-16.057,8.029 -32.063,15.206 -47.882,23.116c-13.927,6.963 -32.032,6.109 -46.231,13.209c-14.88,7.44 -76.914,3.646 -90.811,-3.302c-17.289,-8.645 -40.995,-10.363 -59.44,-16.512c-51.495,-17.165 -150.276,-48.415 -203.086,-13.208c-10.459,6.972 3.322,581.345 3.322,581.345l1124.4,1.713l-84.226,-568.198Z" style="fill:#8de08b;"/><path d="M-27.221,1159.31c0,-0 -110.034,-314.366 -92.053,-333.064c38.92,-40.471 93.503,-67.045 147.94,-77.933c62.154,-12.431 106.46,28.847 159.827,50.194c15.026,6.01 30.743,4.828 46.231,7.925c7.065,1.413 16.464,2.784 23.776,1.321c29.008,-5.801 57.017,-11.282 85.858,-18.492c19.27,-4.818 36.591,-19.055 55.477,-23.776c6.2,-1.55 11.255,-7.767 17.171,-9.246c22.127,-5.532 60.599,-26.472 84.537,-18.493c20.815,6.939 41.163,10.711 60.761,23.776c24.317,16.212 43.97,40.043 72.649,51.515c25.504,10.201 48.695,14.06 75.29,18.492c25.555,4.259 55.803,-1.155 80.574,-5.283c45.741,-7.624 11.795,333.064 11.795,333.064l-829.833,-0Z" style="fill:#e7fd8b;"/><path d="M-46.952,926.013c19.564,-19.564 121.22,-27.597 147.564,-22.355c46.806,9.314 84.369,37.538 112.328,58.507c60.373,45.28 128.61,49.559 205.512,49.559c101.649,0 195.756,-39.714 290.595,-71.327c42.881,-14.294 85.664,-35.825 130.768,-42.269c46.731,-6.676 -50.926,519.214 -50.926,519.214l-788.889,-24.045l-46.952,-467.284Z" style="fill:#fcc164;"/><path d="M788.889,2071.55c-0,-0 72.221,-782.692 36.573,-826.989c-37.67,-46.81 -80.908,-144.467 -151.616,-145.954c-45.541,-0.958 -78.974,26.47 -118.043,44.156c-29.242,13.237 -62.975,19.742 -94.839,24.953c-41.783,6.832 -126.085,14.91 -166.025,-2.726c-34.442,-15.209 -76.996,-29.981 -113.647,-29.584c-55.219,0.599 -93.921,33.538 -163.447,65.55c-47.644,21.937 -145.822,98.884 -145.822,98.884l127.977,771.71l788.889,-0Z" style="fill:#f09457;"/></g></svg>